<?xml version="1.0" standalone="no"?>
<!DOCTYPE svg PUBLIC "-//W3C//DTD SVG 20010904//EN"
 "http://www.w3.org/TR/2001/REC-SVG-20010904/DTD/svg10.dtd">
<svg version="1.0" xmlns="http://www.w3.org/2000/svg"
 width="512.000000pt" height="512.000000pt" viewBox="0 0 512.000000 512.000000"
 preserveAspectRatio="xMidYMid meet">

<g transform="translate(0.000000,512.000000) scale(0.100000,-0.100000)"
fill="#000000" stroke="none">
<path d="M2471 5109 c-78 -24 -147 -86 -182 -164 -18 -40 -24 -74 -27 -172
l-4 -123 -37 0 c-20 0 -47 -7 -59 -16 -21 -15 -22 -21 -22 -172 l0 -157 -112
-29 c-443 -111 -808 -342 -1124 -709 -124 -144 -201 -262 -290 -442 -359 -731
-279 -1608 207 -2255 200 -266 457 -480 759 -633 588 -297 1249 -315 1855 -51
335 147 659 407 869 699 16 22 34 45 40 50 45 39 174 283 240 453 302 774 122
1679 -454 2276 -301 312 -674 530 -1062 621 l-77 18 -3 159 c-4 185 -5 188
-95 188 l-53 0 0 115 c0 91 -4 126 -20 169 -25 66 -85 131 -148 158 -53 24
-152 32 -201 17z m181 -135 c62 -40 78 -85 78 -214 l0 -110 -180 0 -180 0 0
105 c0 118 11 154 58 198 63 60 151 68 224 21z m218 -539 l0 -105 -117 7
c-149 10 -215 10 -380 0 l-133 -8 0 106 0 105 315 0 315 0 0 -105z m-10 -224
c374 -56 726 -211 1011 -445 38 -31 69 -60 69 -64 0 -18 -520 -89 -830 -114
-213 -16 -873 -17 -1090 0 -282 22 -811 92 -832 111 -8 7 95 94 197 166 191
135 445 250 675 306 246 61 558 76 800 40z m-1580 -640 c404 -72 810 -104
1295 -104 489 1 856 31 1302 109 l163 29 50 -50 c27 -27 50 -52 50 -56 0 -23
-534 -111 -877 -144 -675 -66 -1469 -28 -2110 101 -94 19 -175 34 -179 34 -5
0 18 26 50 59 35 36 64 57 75 55 9 -2 90 -17 181 -33z m-75 -235 c280 -51 559
-84 879 -106 205 -14 738 -14 959 0 340 21 828 88 1094 149 l83 19 47 -67
c132 -188 239 -424 298 -660 44 -175 58 -291 58 -506 1 -223 -18 -364 -75
-564 -28 -99 -94 -278 -107 -293 -10 -11 -273 -76 -460 -114 -504 -101 -978
-141 -1561 -131 -608 11 -1106 75 -1613 209 l-118 31 -24 47 c-38 75 -102 276
-124 391 -31 160 -41 260 -41 424 0 418 115 801 342 1141 l61 91 81 -17 c45
-10 144 -30 221 -44z m3165 -2163 c0 -3 -20 -39 -45 -79 l-45 -72 -88 -21
c-929 -218 -2047 -237 -3016 -51 -270 52 -318 65 -344 97 -31 39 -75 114 -69
119 3 3 49 -6 103 -20 334 -84 798 -150 1242 -177 248 -15 895 -6 1122 15 385
37 791 104 1055 175 83 23 85 23 85 14z m-3285 -322 c938 -190 1968 -195 2877
-16 97 19 184 38 192 41 33 13 13 -15 -83 -116 -429 -456 -1050 -700 -1654
-651 -411 33 -766 167 -1099 413 -135 100 -403 370 -353 355 11 -3 65 -15 120
-26z"/>
<path d="M1303 2747 c-10 -13 -47 -85 -82 -160 -35 -75 -69 -137 -75 -137 -6
0 -80 -11 -165 -24 -146 -22 -156 -25 -178 -52 -13 -16 -23 -33 -23 -39 0 -5
54 -63 121 -130 l121 -120 -27 -158 c-15 -86 -24 -168 -21 -182 4 -16 16 -27
34 -32 22 -5 56 8 177 71 l151 78 142 -76 c78 -42 153 -76 166 -76 12 0 31 9
40 19 17 18 16 28 -10 191 l-29 172 123 116 c96 92 122 123 122 143 0 15 -7
32 -15 39 -11 9 -287 59 -331 60 -6 0 -41 64 -79 143 -37 78 -74 150 -83 160
-21 24 -57 21 -79 -6z m169 -392 c28 -6 223 -35 239 -35 6 0 -32 -42 -85 -92
-110 -107 -108 -97 -76 -258 10 -52 17 -96 15 -98 -2 -2 -53 22 -114 52 -61
31 -118 56 -126 56 -9 0 -63 -25 -121 -56 -58 -31 -107 -54 -110 -51 -3 3 4
54 15 113 12 60 21 117 21 126 0 9 -40 56 -90 104 -49 48 -90 90 -90 94 0 3
53 13 117 23 64 9 127 24 140 32 13 9 47 63 76 121 l52 104 57 -115 c44 -86
64 -116 80 -120z"/>
<path d="M3766 2748 c-8 -13 -45 -85 -81 -160 -36 -76 -72 -138 -78 -138 -44
-1 -321 -51 -332 -60 -33 -28 -17 -58 98 -182 l114 -121 -30 -169 c-28 -162
-29 -170 -12 -188 10 -11 28 -20 41 -20 13 0 88 34 166 76 l143 76 151 -78
c136 -71 154 -78 180 -69 39 14 40 32 9 215 l-26 153 126 127 c69 70 125 134
125 143 0 21 -26 46 -53 52 -12 2 -87 15 -166 27 l-145 23 -74 150 c-41 83
-79 153 -86 157 -22 15 -56 8 -70 -14z m90 -270 c31 -62 61 -116 66 -119 6 -4
64 -14 131 -23 66 -9 122 -17 124 -19 1 -2 -38 -43 -87 -92 -103 -101 -102
-95 -70 -255 10 -52 17 -96 16 -97 -1 -1 -55 25 -121 59 l-119 61 -118 -62
c-68 -35 -118 -56 -118 -48 0 6 9 59 20 117 11 58 18 114 15 126 -2 11 -43 58
-91 103 -47 46 -84 85 -81 87 2 2 55 11 118 20 62 9 121 19 129 24 8 4 40 58
70 119 30 61 56 111 57 111 2 0 28 -51 59 -112z"/>
<path d="M2558 2713 c-11 -3 -46 -62 -92 -158 -66 -137 -77 -154 -102 -159
-29 -6 -288 -46 -298 -46 -12 0 -36 -34 -36 -52 0 -13 45 -68 114 -142 l114
-121 -29 -165 c-35 -197 -31 -217 42 -212 9 1 79 35 156 76 l141 75 153 -81
c145 -77 154 -80 178 -67 36 20 37 45 6 221 l-27 153 126 123 c69 68 126 131
126 141 0 37 -33 49 -199 75 -90 14 -164 26 -166 28 -1 2 -34 69 -72 150 -60
124 -95 174 -115 167 -2 -1 -11 -3 -20 -6z m67 -292 c30 -60 59 -112 64 -116
6 -3 67 -13 136 -22 l125 -17 -95 -96 c-52 -54 -95 -103 -95 -111 0 -8 9 -61
20 -119 11 -58 20 -111 20 -118 0 -7 -49 14 -117 50 l-117 62 -118 -62 c-67
-35 -118 -56 -118 -49 0 6 9 59 20 117 11 58 20 111 20 119 0 7 -41 55 -91
106 -104 107 -111 93 60 120 52 8 101 21 110 29 9 8 38 60 66 115 27 56 50
101 52 101 2 0 27 -49 58 -109z"/>
</g>
</svg>
