<?xml version="1.0" standalone="no"?>
<!DOCTYPE svg PUBLIC "-//W3C//DTD SVG 20010904//EN"
 "http://www.w3.org/TR/2001/REC-SVG-20010904/DTD/svg10.dtd">
<svg version="1.0" xmlns="http://www.w3.org/2000/svg"
 width="512.000000pt" height="512.000000pt" viewBox="0 0 512.000000 512.000000"
 preserveAspectRatio="xMidYMid meet">

<g transform="translate(0.000000,512.000000) scale(0.100000,-0.100000)"
fill="#000000" stroke="none">
<path d="M4111 5105 c-68 -19 -126 -58 -168 -113 -40 -53 -72 -153 -129 -410
-23 -107 -44 -196 -47 -198 -2 -2 -30 5 -63 16 -121 42 -252 63 -394 63 -146
0 -223 -13 -350 -59 -150 -53 -281 -138 -417 -267 -204 -195 -326 -373 -513
-747 -91 -183 -142 -266 -235 -385 -183 -235 -511 -508 -816 -678 -36 -20 -74
-46 -84 -57 -40 -44 -30 -50 571 -329 313 -145 571 -265 572 -267 2 -1 -3 -34
-12 -73 -70 -307 90 -602 378 -698 70 -24 97 -27 206 -27 105 0 135 3 184 22
120 44 225 125 297 230 25 34 33 40 48 33 115 -62 1109 -521 1127 -521 42 0
49 33 30 162 -71 494 -59 875 38 1211 14 48 59 165 100 260 122 283 175 437
217 632 19 85 22 132 23 310 0 196 -2 216 -26 307 -65 237 -216 461 -411 607
l-57 44 43 51 c202 238 300 367 329 432 27 63 22 186 -11 256 -74 154 -264
239 -430 193z m194 -98 c61 -18 139 -99 159 -165 26 -89 9 -141 -85 -267 -94
-127 -279 -347 -287 -343 -104 47 -222 115 -222 127 0 52 102 475 129 536 24
55 90 112 138 120 21 4 43 8 48 10 13 5 70 -3 120 -18z m-715 -675 c331 -85
655 -292 820 -525 162 -226 212 -503 154 -847 -9 -52 -19 -100 -23 -106 -4 -7
-169 65 -470 207 -256 121 -474 219 -486 219 -46 0 -62 -59 -22 -84 12 -8 227
-110 477 -226 250 -117 459 -217 465 -222 13 -11 -37 -156 -112 -328 -82 -187
-140 -338 -159 -415 -9 -39 -18 -71 -19 -73 -1 -2 -91 39 -199 89 -174 81
-199 91 -221 81 -25 -12 -33 -44 -17 -69 4 -6 101 -55 215 -109 185 -87 208
-100 203 -118 -2 -12 -10 -67 -17 -123 -7 -57 -17 -103 -21 -103 -10 0 -2468
1136 -2476 1145 -3 3 19 31 49 63 117 120 221 258 298 395 18 31 36 57 39 57
4 0 287 -131 630 -291 367 -171 632 -289 645 -287 29 4 47 52 26 73 -8 8 -293
145 -633 305 -341 159 -621 292 -623 294 -8 7 143 283 214 391 192 294 418
497 653 586 177 68 400 75 610 21z m-703 -2280 l1263 -587 0 -155 c0 -134 12
-298 36 -487 l7 -53 -204 96 c-830 389 -2925 1378 -2932 1383 -4 4 36 34 88
67 112 69 281 192 379 276 45 39 74 57 85 53 9 -3 584 -270 1278 -593z m-310
-623 c235 -110 432 -204 437 -209 11 -11 -45 -90 -96 -135 -138 -119 -336
-148 -513 -74 -184 76 -299 257 -297 465 1 71 18 154 33 154 4 0 200 -90 436
-201z"/>
<path d="M3117 4174 c-61 -22 -196 -93 -262 -137 -82 -55 -224 -200 -258 -265
-30 -56 -29 -87 4 -97 34 -11 54 3 97 69 47 72 149 170 232 224 30 19 98 55
150 79 52 25 106 50 120 57 28 13 38 50 20 72 -15 17 -53 17 -103 -2z"/>
<path d="M683 3736 c-101 -33 -194 -88 -264 -156 -53 -52 -60 -63 -57 -92 2
-28 8 -34 30 -36 23 -3 39 8 89 57 68 68 159 118 265 146 81 21 94 30 94 59 0
52 -45 58 -157 22z"/>
<path d="M802 3415 c-207 -96 -431 -311 -489 -469 -17 -45 -17 -47 4 -67 35
-35 65 -20 102 53 70 139 219 281 382 367 124 65 142 87 101 124 -25 22 -37
21 -100 -8z"/>
<path d="M1410 1659 c-15 -27 -5 -65 18 -71 47 -13 91 42 62 77 -19 23 -67 19
-80 -6z"/>
<path d="M1382 1378 c-7 -7 -12 -29 -12 -50 0 -59 54 -100 88 -66 15 15 16 82
2 109 -12 22 -59 26 -78 7z"/>
<path d="M1450 1035 c-16 -19 -7 -81 16 -106 19 -22 54 -25 72 -7 31 31 -8
128 -52 128 -13 0 -29 -7 -36 -15z"/>
<path d="M1607 732 c-24 -26 -21 -42 14 -85 35 -42 50 -46 79 -17 27 27 25 43
-11 85 -35 39 -58 44 -82 17z"/>
<path d="M3426 639 c-31 -36 -34 -74 -7 -89 32 -17 51 -12 82 22 33 37 38 73
10 88 -33 17 -58 11 -85 -21z"/>
<path d="M1840 480 c-15 -28 -5 -55 30 -80 76 -54 136 8 69 71 -38 35 -83 39
-99 9z"/>
<path d="M3178 428 c-21 -12 -40 -30 -44 -40 -15 -48 31 -82 78 -58 60 32 73
65 38 100 -25 25 -26 25 -72 -2z"/>
<path d="M4744 383 c-6 -5 -23 -29 -38 -56 -38 -64 -117 -141 -197 -188 -36
-21 -70 -39 -76 -39 -22 0 -45 -39 -39 -64 11 -46 46 -43 143 10 194 108 351
330 242 342 -13 1 -29 -1 -35 -5z"/>
<path d="M2146 314 c-9 -8 -16 -22 -16 -30 0 -23 37 -52 75 -60 30 -5 41 -3
57 14 27 27 16 60 -28 78 -43 18 -69 18 -88 -2z"/>
<path d="M2867 300 c-57 -17 -73 -52 -40 -85 23 -23 92 -14 115 15 23 28 22
36 -2 60 -22 22 -30 23 -73 10z"/>
<path d="M2476 239 c-40 -58 62 -111 114 -59 43 43 19 80 -51 80 -37 0 -51 -5
-63 -21z"/>
</g>
</svg>
