<?xml version="1.0" standalone="no"?>
<!DOCTYPE svg PUBLIC "-//W3C//DTD SVG 20010904//EN"
 "http://www.w3.org/TR/2001/REC-SVG-20010904/DTD/svg10.dtd">
<svg version="1.0" xmlns="http://www.w3.org/2000/svg"
 width="512.000000pt" height="512.000000pt" viewBox="0 0 512.000000 512.000000"
 preserveAspectRatio="xMidYMid meet">

<g transform="translate(0.000000,512.000000) scale(0.100000,-0.100000)"
fill="#000000" stroke="none">
<path d="M2479 5105 c-25 -8 -67 -33 -93 -56 -161 -142 -168 -357 -21 -641
l45 -88 -49 0 c-63 0 -129 -34 -152 -80 -10 -19 -26 -83 -35 -142 l-16 -107
-40 -6 c-109 -19 -213 -92 -311 -217 -162 -208 -286 -428 -295 -523 -4 -40
-13 -59 -43 -94 -69 -78 -106 -220 -89 -338 10 -72 46 -158 89 -212 l30 -38
-30 -36 c-72 -87 -108 -226 -89 -345 13 -79 48 -161 90 -209 l31 -35 -32 -36
c-74 -84 -111 -220 -92 -342 16 -99 52 -167 143 -266 95 -102 125 -161 175
-344 89 -327 215 -562 396 -740 146 -144 277 -205 444 -205 116 0 206 28 311
96 229 150 396 413 519 820 62 205 100 264 257 400 44 38 96 135 113 212 28
123 1 247 -75 349 l-40 52 25 30 c71 88 99 180 93 313 -3 84 -8 107 -35 163
-17 36 -42 78 -56 94 l-24 30 35 45 c47 62 69 113 83 197 20 125 -17 264 -93
350 -28 31 -36 50 -40 90 -6 69 -66 193 -157 329 -196 291 -270 362 -426 405
-67 19 -59 3 -85 168 -10 59 -19 81 -43 109 -39 44 -82 63 -141 63 l-45 0 29
51 c76 127 125 285 123 394 -3 235 -191 402 -384 340z m148 -96 c37 -14 90
-65 113 -109 57 -110 37 -257 -60 -450 -53 -106 -75 -130 -119 -130 -36 0 -42
4 -72 52 -113 175 -163 370 -125 485 20 59 72 123 118 146 38 19 104 22 145 6z
m193 -807 c17 -14 24 -36 34 -110 l13 -92 -305 0 -305 0 7 63 c10 88 24 135
44 146 10 6 114 11 253 11 212 0 239 -2 259 -18z m240 -338 c36 -18 83 -49
104 -70 107 -107 356 -493 356 -552 0 -15 -159 -69 -958 -325 -526 -169 -962
-307 -969 -307 -21 0 -82 82 -103 139 -43 113 -19 264 53 344 30 33 53 42 337
132 168 54 313 101 323 106 26 15 22 63 -6 76 -19 9 -72 -5 -308 -82 -156 -51
-286 -91 -288 -89 -8 7 81 179 135 262 106 162 215 302 261 333 99 69 101 69
573 66 l425 -2 65 -31z m580 -870 c25 -67 26 -169 2 -236 -20 -56 -71 -131
-105 -153 -23 -15 -1917 -615 -1942 -615 -17 0 -71 60 -95 107 -27 53 -39 139
-29 205 10 59 51 147 85 179 15 14 328 118 1006 334 l983 313 37 -40 c20 -22
46 -64 58 -94z m-64 -516 c53 -63 77 -133 77 -222 0 -49 -7 -98 -16 -124 -24
-63 -75 -131 -110 -148 -18 -8 -461 -151 -985 -318 l-953 -303 -35 36 c-42 44
-79 121 -88 182 -13 87 35 230 95 285 12 11 409 143 997 331 537 171 980 312
984 312 3 1 19 -14 34 -31z m-4 -625 c58 -62 95 -180 84 -266 -13 -92 -69
-193 -124 -220 -15 -8 -182 -63 -371 -123 -272 -86 -346 -113 -358 -131 -20
-30 -2 -63 34 -63 15 0 141 36 281 81 140 44 256 78 258 76 2 -2 -9 -28 -25
-58 -16 -30 -48 -116 -71 -192 -51 -172 -88 -267 -147 -377 -129 -240 -280
-395 -452 -461 -72 -29 -212 -31 -286 -5 -83 29 -188 101 -264 182 -157 165
-268 383 -356 697 -35 125 -65 202 -102 261 -16 25 -16 29 -3 35 46 17 1848
589 1861 590 8 1 27 -11 41 -26z"/>
<path d="M2796 3744 c-39 -39 -8 -77 76 -93 119 -22 163 -54 268 -202 56 -78
76 -99 95 -99 22 0 55 23 55 38 0 24 -140 212 -197 266 -47 44 -127 83 -194
96 -70 13 -85 13 -103 -6z"/>
<path d="M2072 733 c-7 -2 -17 -14 -23 -25 -25 -46 149 -274 273 -359 64 -44
78 -47 101 -21 27 30 20 47 -37 91 -85 63 -149 132 -210 224 -45 69 -76 102
-89 96 -1 0 -8 -3 -15 -6z"/>
</g>
</svg>
