<?xml version="1.0" standalone="no"?>
<!DOCTYPE svg PUBLIC "-//W3C//DTD SVG 20010904//EN"
 "http://www.w3.org/TR/2001/REC-SVG-20010904/DTD/svg10.dtd">
<svg version="1.0" xmlns="http://www.w3.org/2000/svg"
 width="512.000000pt" height="512.000000pt" viewBox="0 0 512.000000 512.000000"
 preserveAspectRatio="xMidYMid meet">

<g transform="translate(0.000000,512.000000) scale(0.100000,-0.100000)"
fill="#000000" stroke="none">
<path d="M1395 5075 c-56 -59 -79 -133 -73 -225 4 -57 13 -82 52 -154 41 -76
46 -93 46 -149 0 -52 -5 -71 -28 -108 -16 -24 -36 -50 -45 -58 -22 -18 -22
-58 1 -69 58 -31 151 97 160 219 5 80 -7 121 -61 208 -67 105 -61 201 18 284
36 39 43 65 23 85 -22 22 -51 12 -93 -33z"/>
<path d="M1160 4930 c-64 -90 -59 -179 14 -288 37 -55 40 -114 9 -159 -26 -36
-29 -65 -8 -83 33 -27 86 23 111 106 18 61 5 122 -40 188 -51 74 -54 104 -21
170 34 66 31 90 -12 94 -25 3 -35 -3 -53 -28z"/>
<path d="M1597 4928 c-60 -81 -59 -164 2 -268 54 -92 56 -107 21 -173 -31 -59
-31 -82 2 -93 44 -14 107 84 108 168 0 55 -13 88 -55 143 -39 51 -42 126 -7
174 25 34 27 52 10 69 -22 22 -56 13 -81 -20z"/>
<path d="M2190 4667 c-81 -41 -53 -157 38 -157 48 0 82 32 82 77 0 45 -9 62
-41 78 -34 18 -47 18 -79 2z"/>
<path d="M2952 4618 c-7 -7 -12 -39 -12 -74 0 -67 13 -88 52 -82 21 3 23 9 26
71 3 72 -7 97 -37 97 -9 0 -22 -5 -29 -12z"/>
<path d="M2732 4398 c-7 -7 -12 -21 -12 -33 0 -34 20 -45 85 -45 65 0 85 11
85 45 0 12 -5 26 -12 33 -16 16 -130 16 -146 0z"/>
<path d="M3086 4394 c-40 -39 -5 -74 72 -74 31 0 62 4 68 8 19 13 23 39 8 61
-13 17 -25 21 -74 21 -40 0 -64 -5 -74 -16z"/>
<path d="M2944 4256 c-3 -7 -4 -41 -2 -76 3 -70 22 -95 56 -74 22 14 31 142
10 155 -20 13 -58 10 -64 -5z"/>
<path d="M1063 4135 c-22 -15 -23 -22 -23 -160 0 -155 6 -175 54 -175 13 0 35
-9 50 -21 26 -20 26 -22 26 -150 l0 -129 -43 0 c-24 0 -65 -7 -91 -16 -94 -32
-116 -65 -422 -629 l-282 -520 -53 -3 c-30 -2 -59 -8 -66 -14 -18 -14 -18
-269 -1 -286 7 -7 42 -12 89 -12 74 0 77 -1 88 -27 8 -20 11 -245 9 -812 l-3
-784 -46 -11 c-62 -16 -103 -48 -128 -99 -17 -36 -21 -62 -21 -153 0 -72 4
-114 12 -122 9 -9 528 -12 2274 -12 2010 0 2263 2 2274 15 19 23 6 113 -24
173 -14 28 -48 70 -76 94 l-50 43 0 847 0 847 78 3 77 3 3 139 c2 93 -1 143
-9 152 -6 8 -30 14 -53 14 l-42 0 -88 163 c-49 89 -176 324 -283 522 -114 210
-211 376 -232 398 -61 66 -100 79 -241 87 -134 8 -145 11 -234 75 -72 52 -141
70 -271 70 -134 0 -192 -16 -293 -81 -40 -25 -89 -50 -110 -55 -20 -5 -304 -9
-629 -9 l-593 0 0 150 0 150 53 0 c29 0 58 5 65 12 15 15 17 295 2 318 -8 13
-62 15 -367 18 -314 2 -361 1 -380 -13z m667 -160 l0 -85 -199 0 c-147 0 -201
-3 -208 -12 -6 -7 -13 -41 -16 -75 -8 -101 -19 -107 -56 -30 -26 54 -41 72
-76 93 l-45 26 0 84 0 84 300 0 300 0 0 -85z m-130 -320 l0 -145 -170 0 -170
0 0 54 c0 47 2 54 18 50 32 -8 78 31 96 82 9 26 16 57 16 69 0 12 3 25 7 28 3
4 51 7 105 7 l98 0 0 -145z m1838 -106 c28 -5 74 -25 103 -44 123 -77 126 -78
254 -85 176 -10 206 -29 290 -183 21 -37 34 -71 31 -74 -4 -4 -32 -9 -64 -11
-42 -3 -69 2 -105 17 -68 29 -135 27 -200 -5 -68 -34 -87 -52 -87 -81 0 -41
36 -45 101 -11 65 34 112 38 160 12 35 -18 120 -24 207 -14 l43 5 99 -180 c55
-99 100 -182 100 -185 0 -3 -21 -3 -47 0 -95 11 -208 -23 -281 -85 -25 -20
-32 -34 -30 -54 4 -38 35 -37 103 4 69 41 113 55 175 55 46 0 109 -25 146 -57
18 -16 134 -220 134 -237 0 -3 -148 -6 -329 -6 l-329 0 -244 333 c-211 288
-250 335 -288 355 -53 27 -117 25 -159 -5 -14 -10 -138 -168 -275 -351 l-248
-332 -402 0 -403 0 -24 26 c-38 41 -129 109 -184 137 -160 80 -300 64 -491
-55 -155 -98 -175 -102 -491 -106 l-272 -3 104 193 104 193 122 5 c102 4 124
8 133 23 8 12 8 22 0 35 -9 14 -29 18 -108 20 -53 1 -96 4 -96 6 0 10 276 506
297 534 13 18 43 42 66 55 l42 22 935 5 c1030 6 949 0 1035 65 43 32 88 54
132 64 54 13 183 13 241 0z m377 -1228 c248 -340 454 -630 459 -645 14 -36 -3
-78 -38 -95 -52 -25 -72 -5 -294 299 -210 288 -231 310 -266 281 -7 -6 -18
-35 -25 -66 -16 -69 -42 -105 -64 -86 -25 20 -46 98 -53 196 -8 117 -37 232
-80 320 -42 87 -85 141 -119 149 -54 14 -87 -14 -204 -175 -172 -235 -216
-341 -231 -564 -9 -130 -15 -155 -36 -155 -21 0 -34 43 -34 113 0 68 -18 107
-50 107 -12 0 -67 -66 -169 -204 -83 -112 -158 -207 -167 -210 -30 -11 -58 -6
-81 16 -51 48 -58 37 440 713 482 657 479 653 537 633 17 -6 162 -197 475
-627z m-459 193 c53 -95 75 -173 85 -309 10 -131 19 -169 55 -231 56 -98 160
-89 215 18 14 26 14 26 167 -183 l152 -209 0 -565 0 -565 -172 2 -173 3 -5
545 -5 545 -365 3 c-334 2 -366 1 -377 -15 -10 -13 -13 -137 -13 -540 l0 -523
-170 0 -170 0 0 561 0 561 77 105 78 105 12 -28 c7 -16 12 -34 13 -41 0 -23
61 -63 95 -63 92 0 114 38 126 221 11 161 37 257 97 360 46 79 219 309 232
309 5 0 26 -30 46 -66z m-1751 -82 c63 -25 115 -60 186 -128 l65 -64 387 -2
386 -3 -49 -65 -49 -65 -320 -5 c-304 -5 -321 -6 -348 -26 -34 -25 -58 -69
-79 -146 -20 -73 -47 -108 -84 -108 -36 0 -52 22 -80 112 -24 77 -56 121 -111
148 -34 18 -59 20 -243 20 -192 0 -210 -2 -286 -25 -51 -17 -110 -46 -161 -80
-95 -63 -129 -75 -190 -65 -97 15 -147 53 -164 124 l-10 41 -82 3 -83 3 0 69
0 70 278 0 c406 0 489 14 647 109 112 68 160 91 208 101 52 10 129 3 182 -18z
m3075 -262 l0 -70 -300 0 -299 0 -42 58 c-23 31 -46 63 -52 70 -7 9 62 12 342
12 l351 0 0 -70z m-3231 -156 c45 -9 76 -46 91 -108 35 -145 118 -204 223
-158 52 23 83 73 114 182 11 39 25 67 38 76 18 12 72 14 284 12 l261 -3 -96
-130 c-109 -147 -124 -176 -124 -238 0 -108 120 -187 224 -147 l26 10 0 -515
0 -515 -53 0 c-58 0 -77 -12 -77 -47 l0 -23 -438 0 c-504 0 -502 0 -690 94
-188 94 -243 94 -425 -4 -134 -71 -177 -87 -257 -96 l-60 -7 0 743 c0 703 1
742 18 735 138 -58 233 -46 354 42 67 49 143 81 216 92 69 10 327 13 371 5z
m3071 -826 l0 -833 -135 3 -135 3 0 55 c0 49 -2 55 -26 64 -14 6 -43 10 -65
10 l-39 0 0 511 c0 483 1 511 18 503 9 -4 38 -9 63 -12 94 -8 169 62 169 159
0 55 -15 84 -116 219 -47 63 -90 123 -95 133 -9 16 2 17 176 17 l185 0 0 -832z
m-922 -200 l2 -498 -295 0 -295 0 0 500 0 500 293 -2 292 -3 3 -497z m-2402
-562 c207 -103 179 -99 707 -103 l457 -4 0 -115 0 -114 -1035 0 -1035 0 0 68
c0 125 30 146 229 162 125 10 186 30 319 103 119 66 115 65 178 66 44 1 70 -8
180 -63z m2964 -81 l0 -55 -855 0 -855 0 0 55 0 55 855 0 855 0 0 -55z m378
-91 c62 -25 132 -104 132 -149 0 -13 -27 -15 -210 -15 l-210 0 0 90 0 90 125
0 c91 0 136 -4 163 -16z m-378 -109 l0 -55 -855 0 -855 0 0 55 0 55 855 0 855
0 0 -55z"/>
<path d="M2615 3187 c-10 -8 -16 -23 -13 -38 4 -30 95 -79 147 -79 47 0 120
37 134 67 10 22 8 28 -12 44 -22 18 -24 18 -63 -2 -45 -23 -81 -22 -139 4 -30
13 -39 14 -54 4z"/>
<path d="M1385 3136 c-102 -25 -248 -108 -261 -148 -7 -24 12 -48 40 -48 12 0
38 12 57 26 19 15 63 40 99 57 59 28 74 31 165 32 111 0 142 -11 224 -79 48
-40 85 -46 101 -16 14 25 6 39 -49 85 -110 91 -243 124 -376 91z"/>
<path d="M2447 3049 c-26 -4 -75 -23 -110 -42 -53 -29 -62 -38 -62 -62 0 -48
25 -53 92 -18 93 49 126 51 210 8 128 -65 236 -68 326 -9 30 20 38 30 35 51
-4 37 -32 52 -60 34 -83 -53 -147 -53 -256 0 -85 40 -116 47 -175 38z"/>
<path d="M2120 2657 c-74 -30 -86 -36 -127 -66 -48 -35 -57 -73 -23 -91 17 -9
31 -5 78 25 57 35 58 35 172 35 l115 0 51 -35 c56 -39 80 -38 91 3 5 22 0 32
-33 60 -61 54 -118 75 -209 79 -52 2 -92 -2 -115 -10z"/>
<path d="M1285 1606 c-71 -18 -124 -48 -171 -98 -90 -94 -104 -155 -104 -463
l0 -234 -66 -3 c-54 -2 -69 -7 -80 -23 -12 -18 -11 -24 2 -43 l15 -22 519 0
c458 0 520 2 534 16 42 42 6 74 -84 74 l-68 0 -4 263 c-4 301 -12 335 -93 424
-93 104 -249 146 -400 109z m65 -201 l0 -125 -120 0 -120 0 0 28 c1 83 89 182
190 213 51 15 50 17 50 -116z m217 79 c56 -33 102 -99 118 -171 l7 -33 -126 0
-126 0 0 124 0 124 43 -10 c23 -5 61 -20 84 -34z m-217 -489 l0 -196 -122 3
-123 3 -3 193 -2 192 125 0 125 0 0 -195z m340 5 l0 -190 -125 0 -125 0 0 190
0 190 125 0 125 0 0 -190z"/>
<path d="M3066 1009 c-15 -22 -11 -48 8 -61 6 -4 34 -8 61 -8 28 0 55 4 61 8
19 13 23 39 8 61 -12 17 -25 21 -69 21 -44 0 -57 -4 -69 -21z"/>
<path d="M3823 4045 c-32 -22 -43 -65 -28 -102 26 -61 97 -72 139 -22 14 17
26 41 26 54 0 13 -12 37 -26 54 -29 35 -75 42 -111 16z"/>
<path d="M312 3878 c-16 -16 -16 -130 0 -146 18 -18 56 -14 68 7 5 11 10 41
10 66 0 25 -5 55 -10 66 -12 21 -50 25 -68 7z"/>
<path d="M4801 3686 c-7 -9 -11 -41 -9 -83 l3 -68 35 0 35 0 3 68 c3 72 -7 97
-38 97 -10 0 -23 -6 -29 -14z"/>
<path d="M92 3658 c-7 -7 -12 -21 -12 -33 0 -12 5 -26 12 -33 15 -15 112 -16
139 -2 21 12 25 50 7 68 -16 16 -130 16 -146 0z"/>
<path d="M448 3659 c-22 -12 -23 -42 -2 -63 19 -19 124 -22 142 -4 15 15 15
51 0 66 -15 15 -116 15 -140 1z"/>
<path d="M318 3529 c-14 -8 -18 -24 -18 -79 0 -59 3 -71 20 -80 23 -12 54 0
64 26 11 30 6 99 -10 122 -17 24 -30 27 -56 11z"/>
<path d="M4582 3468 c-18 -18 -14 -56 7 -68 11 -5 41 -10 66 -10 25 0 55 5 66
10 21 12 25 50 7 68 -16 16 -130 16 -146 0z"/>
<path d="M4928 3454 c-11 -23 -10 -29 11 -45 25 -21 99 -26 130 -9 25 13 33
37 21 61 -9 16 -22 19 -81 19 -65 0 -70 -2 -81 -26z"/>
<path d="M4794 3327 c-3 -8 -4 -42 -2 -77 3 -70 22 -95 56 -74 14 9 17 26 17
85 l0 74 -33 3 c-21 2 -34 -2 -38 -11z"/>
<path d="M90 2883 c-51 -19 -76 -70 -56 -117 29 -69 120 -69 153 0 22 44 3 91
-43 110 -19 8 -35 14 -36 13 -2 0 -10 -3 -18 -6z"/>
</g>
</svg>
