<?xml version="1.0" standalone="no"?>
<!DOCTYPE svg PUBLIC "-//W3C//DTD SVG 20010904//EN"
 "http://www.w3.org/TR/2001/REC-SVG-20010904/DTD/svg10.dtd">
<svg version="1.0" xmlns="http://www.w3.org/2000/svg"
 width="512.000000pt" height="512.000000pt" viewBox="0 0 512.000000 512.000000"
 preserveAspectRatio="xMidYMid meet">

<g transform="translate(0.000000,512.000000) scale(0.100000,-0.100000)"
fill="#000000" stroke="none">
<path d="M2472 5100 c-169 -77 -165 -318 7 -389 l31 -13 0 -192 0 -191 -153
153 c-84 83 -159 152 -168 152 -19 0 -49 -31 -49 -51 0 -7 83 -97 185 -199
l185 -186 -2 -192 -3 -192 -383 421 c-335 367 -387 420 -409 417 -14 -2 -31
-11 -37 -20 -7 -13 -3 -166 17 -555 15 -296 28 -551 27 -568 0 -28 -8 -22
-135 105 l-135 135 0 267 c0 229 -2 269 -16 282 -21 21 -40 20 -64 -4 -19 -19
-20 -33 -20 -227 l0 -208 -132 132 -131 131 13 31 c7 18 11 56 8 93 -5 73 -36
128 -95 168 -31 21 -48 25 -114 25 -70 0 -81 -3 -120 -30 -117 -82 -122 -253
-12 -344 63 -52 128 -63 209 -35 l47 16 129 -129 128 -128 -215 -5 c-229 -5
-234 -7 -235 -55 0 -43 11 -45 290 -45 l265 0 135 -135 135 -135 -55 0 c-30 0
-288 11 -574 25 -493 25 -519 25 -538 9 -10 -10 -18 -27 -16 -38 2 -13 170
-171 426 -401 l422 -380 -192 -3 -192 -2 -186 185 c-102 102 -192 185 -201
185 -19 0 -49 -31 -49 -51 0 -7 69 -82 152 -166 l153 -153 -191 0 -192 0 -12
29 c-16 41 -68 91 -115 112 -138 64 -295 -44 -295 -201 0 -45 31 -113 67 -146
107 -101 286 -61 342 75 l13 31 192 0 191 0 -153 -153 c-83 -84 -152 -159
-152 -168 0 -19 31 -49 51 -49 7 0 97 83 199 185 l186 185 192 -2 192 -3 -420
-380 c-242 -219 -423 -390 -426 -403 -10 -38 12 -52 85 -52 36 0 275 11 531
25 256 14 485 25 510 25 l45 0 -135 -135 -135 -135 -265 0 c-279 0 -290 -2
-290 -45 1 -48 6 -50 235 -55 l215 -5 -130 -130 -129 -129 -34 12 c-83 30
-186 5 -244 -61 -114 -130 -28 -338 147 -355 127 -12 229 86 230 218 0 30 -7
68 -15 84 l-16 30 128 128 c70 70 131 128 135 128 5 0 8 -94 8 -209 0 -177 2
-212 16 -225 21 -21 40 -20 64 4 19 19 20 33 20 283 l0 262 136 135 136 135
-5 -80 c-3 -44 -16 -302 -29 -573 -16 -355 -19 -498 -12 -510 6 -9 22 -18 35
-20 21 -2 83 62 409 425 l385 428 3 -190 2 -189 -185 -186 c-149 -149 -185
-190 -185 -212 0 -26 23 -48 51 -48 7 0 81 68 166 152 l153 152 0 -191 0 -191
-31 -13 c-136 -56 -176 -235 -75 -342 81 -86 218 -88 302 -3 105 104 76 277
-56 338 l-50 23 0 190 0 189 153 -152 c85 -84 159 -152 166 -152 28 0 51 22
51 48 0 21 -35 62 -180 207 l-180 181 2 189 3 189 380 -419 c243 -269 388
-421 402 -423 14 -2 27 5 38 21 14 22 13 65 -10 508 -13 266 -27 522 -30 569
l-7 85 136 -135 136 -135 0 -262 c0 -282 2 -293 54 -293 44 0 46 12 46 239 l0
216 134 -134 133 -133 -13 -36 c-54 -152 61 -305 217 -290 113 11 205 116 197
224 -6 70 -46 136 -103 170 -60 35 -112 41 -176 20 l-52 -18 -131 131 -131
131 208 0 c194 0 208 1 227 20 24 24 25 43 4 64 -13 14 -53 16 -277 16 l-262
0 -135 135 -135 135 55 0 c30 0 260 -11 510 -25 567 -31 582 -31 605 -5 9 10
15 26 12 34 -3 8 -197 187 -432 398 l-425 383 192 3 192 2 186 -185 c183 -183
209 -202 238 -173 32 32 14 60 -135 210 l-147 148 191 0 191 0 13 -31 c56
-136 235 -176 342 -75 83 77 88 211 11 296 -45 50 -93 71 -159 71 -87 0 -161
-49 -194 -130 l-13 -31 -192 0 -191 0 153 153 c83 84 152 159 152 168 0 19
-31 49 -51 49 -7 0 -97 -83 -199 -185 l-186 -185 -192 2 -192 3 377 342 c502
453 463 416 463 446 0 16 -8 30 -20 37 -17 9 -729 -21 -1070 -45 l-85 -7 135
136 135 136 262 0 c282 0 293 2 293 54 0 44 -12 46 -239 46 l-216 0 135 135
135 135 45 -16 c128 -45 266 50 278 190 10 121 -89 227 -212 228 -86 1 -171
-54 -202 -129 -18 -42 -18 -137 0 -172 l15 -28 -135 -134 -134 -134 0 216 c0
227 -2 239 -46 239 -52 0 -54 -11 -54 -293 l0 -262 -136 -135 -136 -135 7 85
c3 47 17 303 30 569 23 438 24 486 10 508 -20 30 -38 29 -74 -4 -16 -16 -190
-208 -387 -428 l-359 -399 -3 189 -2 189 185 186 c102 102 185 192 185 199 0
28 -22 51 -48 51 -21 0 -57 -30 -174 -147 l-148 -148 0 191 0 192 29 12 c16 6
43 26 61 43 90 87 93 217 6 303 -64 64 -153 81 -234 44z m132 -95 c40 -19 57
-47 58 -96 1 -66 -41 -110 -108 -112 -87 -2 -140 85 -99 163 28 54 90 73 149
45z m-440 -982 l347 -382 -3 -146 -3 -146 -213 235 c-162 180 -218 236 -236
236 -49 0 -50 -9 -37 -308 6 -152 14 -297 17 -322 l5 -45 -106 105 -106 106
-29 534 c-16 294 -30 542 -30 550 0 18 -27 47 394 -417z m1154 -120 l-27 -547
-106 -106 -106 -105 5 45 c3 25 11 171 17 324 l12 279 -22 18 c-12 10 -29 15
-37 12 -8 -3 -111 -111 -229 -240 l-215 -234 0 149 0 148 365 402 c201 221
366 402 368 402 1 0 -10 -246 -25 -547z m939 422 c57 -16 87 -122 47 -166 -47
-52 -103 -61 -155 -26 -77 52 -64 154 26 193 29 13 35 13 82 -1z m-3320 -10
c35 -10 65 -60 65 -108 -2 -104 -151 -139 -205 -47 -26 43 -21 84 13 124 39
43 63 50 127 31z m1402 -930 l171 -190 0 -260 0 -260 -184 185 -185 185 -10
225 c-6 124 -14 257 -17 295 l-5 70 30 -30 c16 -16 107 -115 200 -220z m648
-93 l-14 -254 -181 -181 -182 -182 0 263 0 262 193 215 192 214 3 -42 c1 -23
-4 -156 -11 -295z m1463 53 c0 -3 -181 -169 -402 -370 l-402 -365 -148 0 -149
0 218 196 c120 108 226 205 236 216 25 29 22 67 -7 78 -14 5 -127 3 -292 -5
-148 -8 -289 -15 -314 -15 l-45 0 106 105 106 105 59 1 c56 0 1026 55 1032 58
1 0 2 -1 2 -4z m-3175 -30 l489 -25 100 -99 c55 -55 98 -102 96 -104 -3 -2
-146 3 -318 11 -298 14 -313 14 -332 -3 -11 -10 -20 -25 -20 -34 0 -9 105
-111 234 -226 129 -116 235 -213 235 -217 1 -5 -63 -8 -142 -8 l-142 0 -395
356 c-217 195 -399 360 -404 365 -15 13 55 12 599 -16z m563 -329 l233 -12
182 -182 182 -182 -260 0 -260 0 -185 166 c-102 91 -198 179 -215 195 l-30 29
60 -1 c33 0 165 -6 293 -13z m1782 0 c-8 -7 -106 -95 -217 -195 l-202 -181
-263 0 -263 0 182 182 182 182 213 11 c320 18 385 18 368 1z m-3352 -339 c69
-33 68 -145 0 -187 -40 -24 -81 -26 -117 -4 -38 22 -52 49 -53 96 -1 89 85
137 170 95z m4698 4 c60 -37 69 -123 18 -174 -66 -66 -184 -18 -187 76 -3 93
90 146 169 98z m-3207 -148 c0 -5 -104 -100 -230 -213 -126 -113 -231 -213
-234 -222 -4 -10 -1 -26 5 -38 13 -24 33 -25 400 -6 140 7 257 11 260 9 2 -2
-41 -49 -96 -103 l-99 -100 -544 -30 c-299 -17 -546 -28 -548 -26 -2 2 177
169 399 370 l403 366 142 0 c79 0 143 -3 142 -7z m671 -1 c0 -4 -80 -87 -177
-184 l-178 -177 -295 -15 c-162 -8 -296 -14 -297 -13 -1 2 97 91 218 200 l219
197 255 0 c140 0 255 -3 255 -8z m983 -188 c120 -108 217 -198 215 -199 -2 -2
-133 3 -293 11 l-290 15 -185 185 -185 184 260 0 260 0 218 -196z m632 -171
c222 -202 403 -369 401 -370 -2 -2 -227 8 -500 22 -273 14 -517 25 -543 25
-45 0 -48 2 -152 105 l-106 105 45 0 c25 -1 166 -7 313 -14 147 -8 276 -12
285 -9 30 7 46 41 30 64 -7 10 -105 102 -218 204 -113 103 -216 198 -230 211
l-25 24 148 0 148 0 404 -367z m-1535 32 l0 -255 -197 -219 c-109 -121 -198
-219 -200 -218 -1 1 5 135 13 297 l15 295 177 178 c97 97 180 177 184 177 5 0
8 -115 8 -255z m477 -357 c7 -139 12 -271 11 -292 l-3 -40 -192 214 -193 215
0 260 0 260 182 -182 182 -182 13 -253z m298 -63 c7 -33 57 -1009 53 -1048 -3
-37 -3 -36 -366 363 l-363 400 3 146 3 145 204 -226 c111 -124 212 -230 222
-235 22 -13 55 5 63 33 2 10 -2 138 -10 285 -7 147 -14 287 -14 312 l0 45 100
-100 c56 -55 103 -109 105 -120z m-1269 -125 c-13 -259 -13 -298 0 -317 8 -13
23 -23 34 -23 12 0 87 75 211 213 105 116 202 223 215 237 l24 25 -1 -150 0
-150 -361 -398 c-198 -219 -362 -396 -364 -394 -2 2 8 246 22 543 l26 539 102
103 c74 76 102 98 104 85 1 -10 -4 -151 -12 -313z m2256 -632 c38 -14 58 -50
58 -102 0 -36 -6 -50 -31 -75 -26 -26 -38 -31 -79 -31 -41 0 -53 5 -79 31 -26
26 -31 38 -31 79 0 41 5 53 30 79 41 40 66 44 132 19z m-3308 -17 c24 -22 46
-65 46 -93 0 -35 -34 -83 -69 -97 -85 -36 -175 44 -150 133 20 72 118 105 173
57z m1654 -675 c73 -38 73 -158 0 -197 -27 -15 -91 -14 -116 2 -51 32 -65 102
-32 157 31 50 93 66 148 38z"/>
</g>
</svg>
