<svg width="96" height="96" viewBox="0 0 96 96" fill="none" xmlns="http://www.w3.org/2000/svg">
<path d="M69.8793 25.4114C74.4527 25.4114 75.5961 31.705 75.5961 34.8518C75.5961 37.9986 73.7943 42.4277 77.9501 42.6065C82.2697 42.7924 82.9423 35.0616 82.9423 32.6776C82.9423 30.1662 82.9423 20.5401 72.8538 17.5055C64.2881 14.929 59.1298 19.9004 56.7643 26.0857L45.3306 57.1043C44.7702 58.3405 44.389 61.1502 47.3483 62.4988C50.3076 63.8474 52.0042 62.0106 52.7289 60.1387L60.7996 36.5376C61.9206 32.8289 65.3058 25.4114 69.8793 25.4114Z" fill="#24E287"/>
<path fill-rule="evenodd" clip-rule="evenodd" d="M62.7037 37.1507L54.6084 60.8235L54.594 60.8607C54.1416 62.0293 53.3088 63.4094 51.8967 64.2467C50.3646 65.1553 48.499 65.2211 46.5189 64.3187C44.445 63.3736 43.3865 61.7966 43.0582 60.1506C42.7625 58.6681 43.0791 57.2645 43.4762 56.3524L54.8919 25.3826L54.8962 25.3713C56.1765 22.0234 58.2787 18.8198 61.4085 16.8237C64.6088 14.7826 68.6531 14.1535 73.4299 15.5903C79.1331 17.3058 82.0781 20.956 83.5338 24.5341C84.9425 27.997 84.9423 31.3491 84.9423 32.6495V32.6776C84.9423 33.9807 84.7658 36.7373 83.9704 39.2166C83.5741 40.4522 82.9742 41.7804 82.0308 42.8158C81.0352 43.9084 79.638 44.681 77.8641 44.6046C76.4622 44.5443 75.1891 44.0987 74.3042 43.0561C73.4703 42.0735 73.2596 40.8775 73.2167 39.9327C73.1735 38.9791 73.2929 37.9624 73.394 37.126C73.3997 37.0783 73.4054 37.0312 73.4111 36.9846C73.5132 36.1411 73.5961 35.4565 73.5961 34.8518C73.5961 33.4525 73.3328 31.387 72.6194 29.7509C71.9047 28.1116 71.0091 27.4114 69.8793 27.4114C68.6816 27.4114 67.2151 28.4524 65.7046 30.6994C64.2865 32.8091 63.2341 35.3958 62.7141 37.1162L62.7037 37.1507ZM45.3306 57.1043L56.7642 26.0857C59.1298 19.9004 64.2881 14.929 72.8538 17.5055C82.9423 20.5401 82.9423 30.1662 82.9423 32.6776C82.9423 35.0616 82.2697 42.7924 77.9501 42.6065C74.7595 42.4692 75.0805 39.8267 75.4017 37.1825C75.4989 36.3827 75.5961 35.5827 75.5961 34.8518C75.5961 31.705 74.4527 25.4114 69.8793 25.4114C65.3058 25.4114 61.9206 32.8289 60.7996 36.5376L52.7289 60.1387C52.0042 62.0106 50.3076 63.8474 47.3483 62.4988C44.389 61.1502 44.7702 58.3405 45.3306 57.1043Z" fill="#16824E"/>
<path fill-rule="evenodd" clip-rule="evenodd" d="M72.9754 19.0362C73.2111 18.5368 73.8071 18.323 74.3065 18.5587C79.1277 20.8338 81.2649 24.9565 81.9836 29.069C82.6967 33.1498 82.036 37.2974 81.2074 39.8922C81.0394 40.4183 80.4767 40.7086 79.9506 40.5406C79.4245 40.3726 79.1341 39.8099 79.3021 39.2838C80.0569 36.9203 80.6586 33.1054 80.0134 29.4133C79.3738 25.7528 77.5318 22.2922 73.453 20.3674C72.9535 20.1317 72.7397 19.5357 72.9754 19.0362Z" fill="#19CB75"/>
<path fill-rule="evenodd" clip-rule="evenodd" d="M64.1835 19.3309C64.2565 19.8783 63.8719 20.3812 63.3244 20.4542C63.245 20.4648 63.0201 20.5503 62.651 20.8727C62.3056 21.1745 61.9297 21.5988 61.5503 22.097C60.8097 23.0695 60.1349 24.2176 59.7337 24.9927L47.2546 58.5615C47.0621 59.0791 46.4865 59.3428 45.9688 59.1503C45.4511 58.9579 45.1875 58.3822 45.3799 57.8646L57.8799 24.2396C57.8936 24.2027 57.9095 24.1667 57.9274 24.1317C58.3633 23.2818 59.1123 21.9972 59.9592 20.8852C60.3819 20.3303 60.8497 19.7906 61.3351 19.3666C61.7968 18.9632 62.3895 18.5612 63.0601 18.4718C63.6075 18.3988 64.1105 18.7834 64.1835 19.3309Z" fill="#59F4AA"/>
<path fill-rule="evenodd" clip-rule="evenodd" d="M71.6991 22.671C72.8515 22.8638 73.9473 23.3437 74.6528 24.2036C75.0032 24.6306 74.941 25.2607 74.5141 25.611C74.0871 25.9613 73.457 25.8992 73.1067 25.4722C72.8123 25.1134 72.2362 24.7886 71.3691 24.6436C70.5178 24.5011 69.4804 24.551 68.4072 24.8422C66.2635 25.4236 64.1073 26.9268 63.0569 29.5252L63.0555 29.5287L63.0554 29.5287L60.1179 36.7164C59.909 37.2277 59.3252 37.4727 58.814 37.2638C58.3027 37.0549 58.0577 36.471 58.2666 35.9598L61.2027 28.7756C61.2029 28.775 61.2031 28.7744 61.2034 28.7738C62.5282 25.4985 65.2465 23.6272 67.8836 22.9119C69.201 22.5546 70.5308 22.4755 71.6991 22.671Z" fill="#19CB75"/>
<path fill-rule="evenodd" clip-rule="evenodd" d="M79.1164 38.733C78.0887 38.8354 77.0938 39.1927 76.5145 39.4823C76.0205 39.7293 75.4198 39.5291 75.1728 39.0351C74.9258 38.5411 75.1261 37.9405 75.62 37.6935C76.3741 37.3165 77.6042 36.8738 78.9181 36.7428C80.2183 36.6133 81.7827 36.7748 82.9816 37.8405C83.3944 38.2074 83.4316 38.8395 83.0647 39.2523C82.6978 39.6651 82.0657 39.7022 81.6529 39.3353C81.0518 38.801 80.1579 38.6292 79.1164 38.733Z" fill="#CAFD3A"/>
<path fill-rule="evenodd" clip-rule="evenodd" d="M79.1138 32.905C77.8263 33.125 76.7008 33.4965 76.0828 33.7586C75.5744 33.9743 74.9874 33.737 74.7717 33.2286C74.556 32.7202 74.7933 32.1332 75.3017 31.9175C76.0588 31.5963 77.3332 31.1803 78.777 30.9336C80.2116 30.6885 81.9008 30.5952 83.4432 30.9951C83.9778 31.1337 84.2989 31.6794 84.1603 32.214C84.0217 32.7486 83.4759 33.0696 82.9413 32.931C81.7838 32.6309 80.4105 32.6835 79.1138 32.905Z" fill="#CAFD3A"/>
<path fill-rule="evenodd" clip-rule="evenodd" d="M81.4228 22.6419C81.5312 23.1835 81.1799 23.7103 80.6384 23.8186C79.5274 24.0408 78.3419 24.8091 77.2643 25.7912C76.2036 26.7578 75.3499 27.8371 74.9011 28.515C74.5963 28.9755 73.9758 29.1017 73.5153 28.7969C73.0548 28.492 72.9286 27.8715 73.2334 27.411C73.7638 26.6098 74.7226 25.4015 75.9171 24.313C77.0947 23.2398 78.6071 22.1852 80.2461 21.8574C80.7877 21.7491 81.3145 22.1003 81.4228 22.6419Z" fill="#CAFD3A"/>
<path fill-rule="evenodd" clip-rule="evenodd" d="M74.0419 17.1231C74.3332 17.5924 74.1889 18.2089 73.7196 18.5002C73.6329 18.554 73.4207 18.7826 73.169 19.3715C72.9357 19.9173 72.7294 20.6252 72.5546 21.4151C72.2058 22.9908 72.011 24.7587 71.9404 25.8998C71.9062 26.4511 71.4317 26.8702 70.8804 26.8361C70.3292 26.802 69.91 26.3274 69.9442 25.7762C70.0193 24.5632 70.2246 22.6873 70.6018 20.9828C70.79 20.1326 71.0283 19.2912 71.33 18.5854C71.6133 17.9225 72.0266 17.1971 72.6649 16.8009C73.1341 16.5096 73.7506 16.6539 74.0419 17.1231Z" fill="#CAFD3A"/>
<path fill-rule="evenodd" clip-rule="evenodd" d="M61.8769 18.0467C62.1413 17.5618 62.7488 17.3832 63.2336 17.6476C63.8548 17.9864 64.4029 18.6166 64.8609 19.2594C65.3393 19.9307 65.8047 20.7398 66.2315 21.5697C67.0861 23.2311 67.8307 25.063 68.258 26.249C68.4453 26.7686 68.1759 27.3416 67.6563 27.5288C67.1367 27.716 66.5637 27.4466 66.3765 26.927C65.9705 25.8005 65.2589 24.0512 64.453 22.4845C64.0496 21.7003 63.6338 20.9836 63.2322 20.4201C62.8103 19.8281 62.4797 19.5146 62.2759 19.4034C61.7911 19.1389 61.6124 18.5315 61.8769 18.0467Z" fill="#CAFD3A"/>
<path fill-rule="evenodd" clip-rule="evenodd" d="M55.697 25.0401C55.896 24.5249 56.475 24.2687 56.9902 24.4677C57.9454 24.8368 59.4474 25.5041 60.8863 26.3217C62.2841 27.116 63.7839 28.1401 64.573 29.2631C64.8905 29.7149 64.7816 30.3387 64.3297 30.6562C63.8778 30.9737 63.2541 30.8648 62.9366 30.413C62.4257 29.6859 61.2796 28.8455 59.8982 28.0606C58.558 27.299 57.1474 26.6726 56.2694 26.3333C55.7542 26.1343 55.4979 25.5553 55.697 25.0401Z" fill="#CAFD3A"/>
<path fill-rule="evenodd" clip-rule="evenodd" d="M53.1631 33.0818C53.3046 32.548 53.8521 32.2299 54.386 32.3714C55.2843 32.6095 56.7038 33.0505 58.0742 33.6088C59.3955 34.1471 60.8504 34.8634 61.6626 35.7069C62.0457 36.1047 62.0337 36.7377 61.6359 37.1208C61.2381 37.5039 60.605 37.492 60.2219 37.0942C59.7342 36.5876 58.6473 36.0019 57.3197 35.461C56.0412 34.9401 54.7044 34.5249 53.8736 34.3046C53.3397 34.1631 53.0216 33.6157 53.1631 33.0818Z" fill="#CAFD3A"/>
<path fill-rule="evenodd" clip-rule="evenodd" d="M50.3218 41.1182C50.3741 40.5684 50.8623 40.1652 51.4121 40.2175C52.7946 40.3492 56.2095 40.957 58.9656 42.388C59.4557 42.6425 59.6468 43.2462 59.3923 43.7363C59.1378 44.2265 58.5341 44.4175 58.0439 44.163C55.6 42.8941 52.4649 42.3268 51.2225 42.2085C50.6727 42.1561 50.2694 41.668 50.3218 41.1182Z" fill="#CAFD3A"/>
<path fill-rule="evenodd" clip-rule="evenodd" d="M47.8276 47.3196C47.9068 46.773 48.4141 46.3941 48.9607 46.4734C50.4345 46.6869 54.043 47.4218 56.6321 48.69C57.1281 48.9329 57.3333 49.5319 57.0903 50.0279C56.8474 50.5239 56.2484 50.729 55.7524 50.4861C53.4415 49.3542 50.075 48.6557 48.6738 48.4527C48.1273 48.3735 47.7484 47.8662 47.8276 47.3196Z" fill="#CAFD3A"/>
<path fill-rule="evenodd" clip-rule="evenodd" d="M45.5746 53.7798C45.6413 53.2315 46.1397 52.8411 46.688 52.9078C47.51 53.0078 48.8615 53.2525 50.3076 53.6655C51.7437 54.0758 53.3425 54.6715 54.6135 55.5004C55.0761 55.8021 55.2066 56.4217 54.9049 56.8843C54.6032 57.3469 53.9836 57.4773 53.521 57.1756C52.492 56.5046 51.1117 55.9752 49.7582 55.5886C48.4147 55.2048 47.1662 54.9807 46.4465 54.8932C45.8983 54.8265 45.5079 54.328 45.5746 53.7798Z" fill="#CAFD3A"/>
<path d="M30.0749 34.3861C24.795 34.1198 23.1086 41.3189 22.9254 44.9518C22.7421 48.5846 24.5643 53.8026 19.7563 53.7671C14.7587 53.7301 14.4324 44.7662 14.5712 42.014C14.7175 39.1147 15.278 28.0019 27.1013 25.086C37.14 22.6103 42.6297 29.0881 45.1762 35.9283L56.5696 72.4034C57.1447 73.8632 57.4211 77.1291 53.9262 78.5137C50.4313 79.8983 48.5796 77.679 47.852 75.4757L39.909 47.7595C38.8309 43.4127 35.3547 34.6524 30.0749 34.3861Z" fill="#F33624"/>
<path fill-rule="evenodd" clip-rule="evenodd" d="M37.9765 48.2759L45.9404 76.065L45.9529 76.1029C46.3949 77.4414 47.2442 79.0107 48.7458 80.0068C50.3639 81.0801 52.4041 81.2679 54.6628 80.3731C57.0174 79.4402 58.2625 77.7617 58.7133 75.9763C59.1234 74.352 58.8489 72.7748 58.4593 71.745L47.0693 35.2808L47.0506 35.2305C45.699 31.6001 43.5035 27.8796 40.1328 25.4021C36.6812 22.8652 32.1831 21.7728 26.6224 23.1442C20.0426 24.7669 16.4999 28.7372 14.6451 32.7102C12.843 36.5704 12.6505 40.3906 12.5752 41.8848L12.5738 41.9132C12.4988 43.4003 12.5425 46.5573 13.3048 49.4229C13.6849 50.8516 14.2853 52.3715 15.2739 53.5729C16.3118 54.8342 17.7975 55.7527 19.7415 55.767C21.3068 55.7786 22.707 55.3545 23.7118 54.2849C24.6627 53.2726 24.9643 51.9859 25.066 50.9261C25.1685 49.8576 25.0924 48.7024 25.0242 47.7272C25.0201 47.6689 25.016 47.6112 25.012 47.5541C24.9438 46.5831 24.8866 45.7701 24.9228 45.0525C25.0057 43.41 25.4358 40.9951 26.3796 39.0974C27.325 37.1967 28.4896 36.3087 29.9741 36.3836C31.5264 36.4619 33.2338 37.8798 34.8536 40.5733C36.388 43.1249 37.4624 46.2033 37.9678 48.241L37.9765 48.2759ZM56.5696 72.4034L45.1762 35.9283C42.6297 29.0881 37.14 22.6103 27.1013 25.086C15.278 28.0019 14.7175 39.1147 14.5712 42.014C14.4324 44.7662 14.7587 53.7301 19.7563 53.7671C23.4476 53.7944 23.2309 50.725 23.014 47.6538C22.9484 46.7247 22.8828 45.7955 22.9254 44.9518C23.1086 41.3189 24.795 34.1198 30.0749 34.3861C35.3547 34.6524 38.8309 43.4127 39.909 47.7595L47.852 75.4757C48.5796 77.679 50.4313 79.8983 53.9262 78.5137C57.4211 77.129 57.1447 73.8632 56.5696 72.4034Z" fill="#8B150A"/>
<path fill-rule="evenodd" clip-rule="evenodd" d="M34.634 27.7134C36.7508 29.0275 38.1965 30.9443 39.1319 32.2581C39.4522 32.708 39.3471 33.3324 38.8972 33.6527C38.4474 33.973 37.823 33.868 37.5026 33.4181C36.5839 32.1277 35.332 30.5007 33.5792 29.4127C31.8736 28.3539 29.648 27.7767 26.6671 28.671C22.1549 30.0246 20.151 34.3196 19.7331 36.2951C19.6188 36.8355 19.0881 37.1808 18.5478 37.0665C18.0075 36.9522 17.6621 36.4215 17.7764 35.8812C18.2752 33.5234 20.6046 28.4016 26.0924 26.7553C29.6539 25.6869 32.47 26.3701 34.634 27.7134Z" fill="#FF867B"/>
<path fill-rule="evenodd" clip-rule="evenodd" d="M29.2674 27.6708C28.0163 27.6525 26.8756 27.8469 26.2372 28.0215C25.7045 28.1671 25.1545 27.8533 25.0089 27.3206C24.8633 26.7878 25.1771 26.2379 25.7098 26.0923C26.5193 25.8709 27.8474 25.6498 29.2967 25.671C30.7365 25.6921 32.4017 25.9538 33.8005 26.7931C34.2741 27.0773 34.4276 27.6915 34.1435 28.1651C33.8593 28.6387 33.2451 28.7922 32.7715 28.5081C31.7953 27.9224 30.5282 27.6893 29.2674 27.6708Z" fill="#FFF5F4"/>
<path fill-rule="evenodd" clip-rule="evenodd" d="M34.6601 33.8516C36.4574 35.4931 37.6241 37.7398 38.1847 39.1579C38.3878 39.6715 38.136 40.2524 37.6224 40.4555C37.1088 40.6585 36.5278 40.4068 36.3248 39.8932C35.8229 38.6237 34.7975 36.6857 33.3114 35.3285C31.8666 34.0091 30.0658 33.2882 27.7966 34.1482C25.2454 35.115 23.8457 37.3248 23.1697 40.0046C22.4915 42.6927 22.589 45.7055 22.9307 47.9367C23.0143 48.4826 22.6395 48.9929 22.0936 49.0766C21.5477 49.1602 21.0374 48.7854 20.9538 48.2395C20.5871 45.8456 20.4659 42.5459 21.2304 39.5154C21.9971 36.4764 23.7015 33.5612 27.0879 32.278C30.2471 31.0807 32.8213 32.1724 34.6601 33.8516Z" fill="#BF2112"/>
<path fill-rule="evenodd" clip-rule="evenodd" d="M37.7723 27.6361C38.0564 27.1625 38.6707 27.0089 39.1442 27.2931C39.7195 27.6382 40.2987 28.2013 40.841 28.8396C41.3948 29.4913 41.9578 30.2787 42.4922 31.1297C43.5581 32.8271 44.5501 34.8415 45.1426 36.652L45.1451 36.6596L45.1451 36.6596L50.5191 53.5315L50.5201 53.5346L57.0816 73.9065C57.2509 74.4322 56.962 74.9956 56.4363 75.1649C55.9106 75.3342 55.3472 75.0453 55.1779 74.5196L48.6154 54.1446L48.6144 54.1416L43.2406 37.2703C42.708 35.6442 41.7943 33.7791 40.7985 32.1933C40.3017 31.4021 39.7944 30.6965 39.3169 30.1346C38.828 29.5592 38.415 29.1879 38.1152 29.0081C37.6417 28.7239 37.4881 28.1096 37.7723 27.6361Z" fill="#BF2112"/>
<path fill-rule="evenodd" clip-rule="evenodd" d="M24.0136 46.1399C24.1921 46.6626 23.913 47.2309 23.3904 47.4094C19.0437 48.8936 15.5616 48.0669 14.2181 47.3435C13.7319 47.0817 13.5499 46.4752 13.8118 45.989C14.0736 45.5027 14.6801 45.3208 15.1663 45.5826C15.9896 46.0259 18.8908 46.8325 22.7441 45.5167C23.2668 45.3382 23.8351 45.6173 24.0136 46.1399Z" fill="#FCE04E"/>
<path fill-rule="evenodd" clip-rule="evenodd" d="M14.7116 35.7178C15.0887 35.3143 15.7215 35.2928 16.125 35.6699C17.3442 36.8092 20.5608 39.2144 23.6468 39.8592C24.1874 39.9722 24.5341 40.502 24.4211 41.0426C24.3081 41.5832 23.7783 41.9299 23.2377 41.8169C19.6237 41.0618 16.082 38.367 14.7595 37.1312C14.356 36.7541 14.3345 36.1213 14.7116 35.7178Z" fill="#FCE04E"/>
<path fill-rule="evenodd" clip-rule="evenodd" d="M20.5403 27.0224C21.0598 26.835 21.6329 27.1042 21.8204 27.6237C22.1668 28.5836 22.8453 30.1533 23.7366 31.6873C24.6422 33.2459 25.6991 34.6472 26.7657 35.3938C27.2182 35.7105 27.3282 36.3341 27.0115 36.7865C26.6948 37.239 26.0712 37.349 25.6188 37.0323C24.1854 36.0289 22.9506 34.3156 22.0073 32.692C21.0496 31.0437 20.3219 29.3633 19.9391 28.3025C19.7517 27.783 20.0208 27.2099 20.5403 27.0224Z" fill="#FCE04E"/>
<path fill-rule="evenodd" clip-rule="evenodd" d="M29.9671 23.9215C30.4733 24.1424 30.7046 24.7318 30.4837 25.238C30.0675 26.1919 29.2275 29.5235 29.8098 34.279C29.8769 34.8272 29.4869 35.326 28.9387 35.3931C28.3905 35.4603 27.8917 35.0703 27.8246 34.5221C27.2069 29.4776 28.0669 25.7759 28.6507 24.4381C28.8715 23.9319 29.4609 23.7006 29.9671 23.9215Z" fill="#FCE04E"/>
<path fill-rule="evenodd" clip-rule="evenodd" d="M40.1171 27.1169C40.2047 27.6622 39.8337 28.1753 39.2884 28.2629C38.8434 28.3344 38.3171 28.6063 37.7278 29.1162C37.1465 29.6191 36.5678 30.2983 36.0203 31.0698C34.9249 32.6137 34.0344 34.4139 33.556 35.5899C33.3479 36.1014 32.7645 36.3475 32.2529 36.1394C31.7414 35.9313 31.4953 35.3478 31.7034 34.8363C32.2251 33.5538 33.1846 31.6103 34.3892 29.9125C34.9917 29.0633 35.6755 28.2471 36.4192 27.6037C37.1549 26.9672 38.016 26.4417 38.9711 26.2882C39.5164 26.2006 40.0294 26.5716 40.1171 27.1169Z" fill="#FCE04E"/>
<path fill-rule="evenodd" clip-rule="evenodd" d="M40.6994 38.2238C39.3132 39.0951 38.1704 40.1429 37.56 40.8201C37.1902 41.2303 36.5579 41.2631 36.1477 40.8933C35.7375 40.5236 35.7047 39.8912 36.0745 39.481C36.7974 38.679 38.0796 37.5082 39.6351 36.5305C41.1771 35.5612 43.0966 34.7131 45.0672 34.7131C45.6195 34.7131 46.0672 35.1608 46.0672 35.7131C46.0672 36.2653 45.6195 36.7131 45.0672 36.7131C43.6379 36.7131 42.099 37.3441 40.6994 38.2238Z" fill="#FCE04E"/>
<path fill-rule="evenodd" clip-rule="evenodd" d="M43.3225 45.4498C41.7128 45.5566 40.1308 45.9255 39.1842 46.228C38.6581 46.3961 38.0953 46.1059 37.9272 45.5799C37.7591 45.0538 38.0493 44.491 38.5753 44.3229C39.6496 43.9796 41.3925 43.5734 43.1901 43.4542C44.9416 43.338 46.9692 43.4769 48.4303 44.4407C48.8914 44.7448 49.0186 45.365 48.7145 45.826C48.4104 46.2871 47.7902 46.4143 47.3291 46.1102C46.4403 45.5239 44.9783 45.34 43.3225 45.4498Z" fill="#FCE04E"/>
<path fill-rule="evenodd" clip-rule="evenodd" d="M45.7287 54.2322C44.0124 54.0743 42.3739 54.1202 41.4087 54.2088C40.8587 54.2593 40.3719 53.8544 40.3214 53.3045C40.2709 52.7545 40.6758 52.2677 41.2258 52.2172C42.3022 52.1183 44.0638 52.0705 45.912 52.2407C47.7371 52.4087 49.7689 52.7991 51.3029 53.6514C51.7857 53.9196 51.9596 54.5284 51.6914 55.0112C51.4232 55.4939 50.8144 55.6679 50.3316 55.3997C49.1656 54.7519 47.4682 54.3924 45.7287 54.2322Z" fill="#FCE04E"/>
<path fill-rule="evenodd" clip-rule="evenodd" d="M48.639 63.4616C46.7983 63.256 45.0039 63.3286 43.9357 63.4561C43.3873 63.5215 42.8897 63.1299 42.8243 62.5815C42.7589 62.0331 43.1504 61.5355 43.6988 61.4701C44.9014 61.3267 46.8507 61.2494 48.8611 61.474C50.8424 61.6953 53.0415 62.2261 54.6095 63.4166C55.0493 63.7506 55.1352 64.3779 54.8012 64.8178C54.4672 65.2577 53.8399 65.3435 53.4 65.0095C52.268 64.15 50.5087 63.6705 48.639 63.4616Z" fill="#FCE04E"/>
<path fill-rule="evenodd" clip-rule="evenodd" d="M52.143 73.2424C50.2798 72.648 48.168 72.5182 46.805 72.5868C46.2535 72.6146 45.7838 72.19 45.756 71.6384C45.7282 71.0868 46.1529 70.6171 46.7044 70.5894C48.2373 70.5122 50.6006 70.6511 52.7508 71.337C54.868 72.0123 57.0612 73.3175 57.7204 75.7656C57.8639 76.2989 57.548 76.8476 57.0147 76.9912C56.4814 77.1348 55.9327 76.8189 55.7891 76.2856C55.3982 74.8337 54.0395 73.8473 52.143 73.2424Z" fill="#FCE04E"/>
</svg>
