<svg width="96" height="96" viewBox="0 0 96 96" fill="none" xmlns="http://www.w3.org/2000/svg">
<g clip-path="url(#clip0_106_3072)">
<path d="M68.9224 74.6166L78.4452 36.0281C77.2735 34.0922 56.6949 29.7977 47.5521 27.8924L41.8204 59.198C36.4796 57.8845 27.3817 57.1917 22.5343 58.0592C17.588 58.9443 11.9002 58.5636 10.5628 66.9576C9.61546 72.9035 16.2961 75.7478 19.9389 76.987C27.0662 79.4114 42.8863 84.1753 53.4406 85.2262C63.7971 86.2575 68.0095 79.0262 68.9224 74.6166Z" fill="#E73434"/>
<path fill-rule="evenodd" clip-rule="evenodd" d="M80.5856 35.702L70.8728 75.0605C70.3407 77.5934 68.8841 80.8907 66.0656 83.444C63.1714 86.0658 58.9644 87.7862 53.2424 87.2164C42.4409 86.1409 26.4326 81.3085 19.2948 78.8804C17.4277 78.2453 14.5698 77.1348 12.2785 75.2977C9.93607 73.4197 7.96184 70.571 8.58769 66.643C8.95651 64.3281 9.6476 62.4773 10.6553 61.0154C11.6743 59.537 12.9493 58.5554 14.3263 57.8912C15.6738 57.2412 17.1001 56.9049 18.4184 56.6729C19.0628 56.5595 19.7108 56.4664 20.3215 56.3787L20.3703 56.3717C21.0066 56.2803 21.603 56.1941 22.182 56.0905C24.8412 55.6146 28.5153 55.5822 32.1211 55.8149C34.9158 55.9953 37.7725 56.3418 40.2247 56.8081L45.9539 25.5164L47.9601 25.9345C52.5268 26.8862 59.9878 28.4423 66.4573 30.0047C69.6872 30.7847 72.7077 31.5752 75.0104 32.3005C76.1563 32.6615 77.1731 33.0213 77.9654 33.3718C78.3594 33.5461 78.7447 33.7384 79.0791 33.9512C79.3605 34.1302 79.8359 34.4633 80.1562 34.9925L80.5856 35.702ZM41.8204 59.198C41.2131 59.0487 40.5572 58.9074 39.8645 58.7754C34.4655 57.7472 26.8305 57.2904 22.5343 58.0592C21.9041 58.172 21.2619 58.2642 20.6182 58.3566C16.2093 58.9898 11.7298 59.633 10.5628 66.9577C9.61544 72.9035 16.2961 75.7478 19.9389 76.987C27.0662 79.4115 42.8862 84.1753 53.4406 85.2262C63.7971 86.2575 68.0095 79.0262 68.9224 74.6166L78.4451 36.0281C77.3511 34.2205 59.336 30.3563 49.5105 28.3011C48.8135 28.1553 48.1577 28.0186 47.5521 27.8924L41.8204 59.198Z" fill="#811313"/>
<path fill-rule="evenodd" clip-rule="evenodd" d="M53.0001 5.99997C54.1046 5.99997 55.0001 6.8954 55.0001 7.99997V26.8125C55.0001 27.917 54.1046 28.8125 53.0001 28.8125C51.8955 28.8125 51.0001 27.917 51.0001 26.8125V7.99997C51.0001 6.8954 51.8955 5.99997 53.0001 5.99997Z" fill="#48A2B6"/>
<path fill-rule="evenodd" clip-rule="evenodd" d="M50.2183 38.6805C51.2921 38.9392 51.953 40.0194 51.6943 41.0933L47.5693 58.2183C47.3106 59.2921 46.2304 59.953 45.1566 59.6943C44.0827 59.4356 43.4219 58.3554 43.6805 57.2816L47.8055 40.1566C48.0642 39.0827 49.1444 38.4219 50.2183 38.6805Z" fill="#FB5B5B"/>
<path fill-rule="evenodd" clip-rule="evenodd" d="M72.0774 33.5184L62.9224 70.6167C62.0096 75.0263 57.7971 82.2575 47.4406 81.2263C36.8863 80.1754 21.0662 75.4115 13.9389 72.9871C13.3658 72.7921 12.7175 72.5574 12.0355 72.2772C14.0643 74.7566 17.6181 76.1976 19.9389 76.9871C27.0662 79.4115 42.8863 84.1754 53.4406 85.2263C63.7971 86.2575 68.0096 79.0263 68.9224 74.6167L78.4452 36.0281C78.0594 35.3908 75.5699 34.4977 72.0774 33.5184Z" fill="#C42727"/>
<path fill-rule="evenodd" clip-rule="evenodd" d="M78.4452 36.0281L68.9224 74.6166C68.8352 75.0377 68.718 75.4844 68.5682 75.9473L76.4451 44.0281C75.2951 42.1279 55.445 37.9549 46.0678 35.9999L47.5521 27.8925C56.695 29.7978 77.2736 34.0923 78.4452 36.0281Z" fill="#AE1E1E"/>
<path fill-rule="evenodd" clip-rule="evenodd" d="M69.651 71.654L68.9224 74.6165C68.0096 79.0261 63.7971 86.2574 53.4406 85.2262C50.3951 84.9229 46.9111 84.3105 43.3241 83.5344C44.8947 75.2514 51.9876 69 60.5 69C63.8545 69 66.9885 69.9707 69.651 71.654Z" fill="#E99345"/>
<path fill-rule="evenodd" clip-rule="evenodd" d="M44.0671 80.7961C43.7521 81.6785 43.5024 82.5933 43.324 83.5344C46.911 84.3105 50.395 84.9229 53.4405 85.2262C63.797 86.2574 68.0094 79.0261 68.9223 74.6165L69.6509 71.654C67.7355 70.4431 65.576 69.6009 63.2661 69.2236L62.9223 70.6166C62.0094 75.0262 57.797 82.2575 47.4405 81.2263C46.3657 81.1193 45.2363 80.9737 44.0671 80.7961Z" fill="#CA7B32"/>
<path fill-rule="evenodd" clip-rule="evenodd" d="M50.9223 71.9315C47.0084 74.5924 44.7393 78.9007 44.2894 82.235C44.2156 82.7823 43.712 83.1662 43.1647 83.0923C42.6174 83.0185 42.2335 82.5149 42.3074 81.9676C42.8305 78.09 45.398 73.2689 49.7978 70.2776C54.2628 67.2421 60.5293 66.147 68.2637 69.6275C68.7673 69.8541 68.9918 70.4461 68.7652 70.9497C68.5386 71.4534 67.9466 71.6779 67.4429 71.4513C60.2956 68.235 54.7711 69.3149 50.9223 71.9315Z" fill="#FFAF66"/>
<path d="M42.6786 22.323C43.1557 19.6031 45.7474 17.785 48.4673 18.2622L81.0375 23.9762C83.7574 24.4534 85.5755 27.0451 85.0983 29.765L84.4859 33.2558C84.0087 35.9757 81.417 37.7938 78.6971 37.3166L46.1269 31.6026C43.407 31.1254 41.589 28.5337 42.0661 25.8138L42.6786 22.323Z" fill="#CEFCEB"/>
<path fill-rule="evenodd" clip-rule="evenodd" d="M48.8129 16.2923L81.3831 22.0063C85.1909 22.6743 87.7362 26.3027 87.0682 30.1106L86.4558 33.6014C85.7878 37.4092 82.1594 39.9546 78.3515 39.2865L45.7813 33.5725C41.9735 32.9045 39.4282 29.2761 40.0962 25.4682L40.7086 21.9774C41.3767 18.1696 45.0051 15.6243 48.8129 16.2923ZM48.4673 18.2622C45.7474 17.785 43.1557 19.6031 42.6785 22.323L42.0661 25.8138C41.589 28.5337 43.407 31.1254 46.1269 31.6026L78.6971 37.3166C81.417 37.7938 84.0087 35.9757 84.4859 33.2558L85.0983 29.765C85.5755 27.0451 83.7574 24.4534 81.0375 23.9762L48.4673 18.2622Z" fill="#79DAB8"/>
<path fill-rule="evenodd" clip-rule="evenodd" d="M47.4603 28.6142C47.6043 27.7984 48.3824 27.2538 49.1982 27.3978L80.9465 33.0032C81.7623 33.1472 82.3069 33.9253 82.1629 34.7411C82.0189 35.5569 81.2407 36.1015 80.4249 35.9575L48.6766 30.3521C47.8608 30.2081 47.3163 29.43 47.4603 28.6142Z" fill="#9FF3F3"/>
<path fill-rule="evenodd" clip-rule="evenodd" d="M45.3369 20.7583C45.4858 19.9433 46.2672 19.4034 47.0821 19.5524L59.5821 21.8369C60.3971 21.9859 60.937 22.7672 60.788 23.5822C60.6391 24.3971 59.8577 24.937 59.0428 24.788L46.5428 22.5035C45.7278 22.3546 45.188 21.5732 45.3369 20.7583Z" fill="white"/>
<path fill-rule="evenodd" clip-rule="evenodd" d="M47.1144 42.819C46.0926 42.941 45.0987 43.3688 44.5165 43.7199C44.0436 44.0052 43.429 43.853 43.1437 43.3801C42.8585 42.9072 43.0106 42.2926 43.4836 42.0073C44.2506 41.5447 45.5135 40.996 46.8773 40.8331C48.2489 40.6694 49.8732 40.8865 51.1014 42.1731C53.1244 44.2923 55.322 44.4062 57.2636 44.1995C57.6877 44.1544 58.1769 44.0261 58.7687 43.8576C58.836 43.8385 58.9046 43.8188 58.9744 43.7987C59.4877 43.6515 60.0649 43.4859 60.6344 43.3789C61.9398 43.1335 63.5412 43.1346 64.7512 44.542C65.6277 45.5616 66.0752 45.9932 66.5905 46.2215C67.0978 46.4463 67.7989 46.5257 69.3175 46.4158C69.4823 46.4039 69.6464 46.3913 69.8091 46.3788C70.3732 46.3356 70.9205 46.2936 71.4174 46.2851C72.0683 46.2738 72.7241 46.3158 73.3553 46.5152C74.7077 46.9424 75.6434 47.9879 76.4371 49.783C76.6604 50.2881 76.432 50.8786 75.9269 51.102C75.4217 51.3253 74.8312 51.0969 74.6079 50.5917C73.9297 49.0579 73.3322 48.6053 72.7528 48.4222C72.418 48.3165 72.0083 48.2752 71.4518 48.2848C71.0198 48.2922 70.554 48.3278 70.0041 48.3699C69.8321 48.3831 69.6519 48.3969 69.4619 48.4106C67.9141 48.5226 66.7754 48.4911 65.7802 48.0501C64.793 47.6126 64.0752 46.8236 63.2346 45.8458C62.7274 45.2558 62.0596 45.146 61.0039 45.3444C60.5331 45.4329 60.0521 45.5706 59.5283 45.7206C59.4585 45.7406 59.3879 45.7608 59.3164 45.7812C58.7392 45.9455 58.0938 46.1225 57.4753 46.1883C55.2467 46.4255 52.2927 46.3175 49.6548 43.5541C49.0187 42.8878 48.1285 42.698 47.1144 42.819Z" fill="#811313"/>
<path fill-rule="evenodd" clip-rule="evenodd" d="M48.542 41.6545C47.5855 41.7615 46.6574 42.1365 46.1171 42.442C45.6363 42.7137 45.0262 42.5443 44.7545 42.0635C44.4827 41.5827 44.6521 40.9726 45.1329 40.7009C45.8562 40.292 47.0418 39.8099 48.3196 39.6669C49.5969 39.524 51.1283 39.7085 52.299 40.8578C54.1733 42.698 56.2209 42.804 58.0469 42.6218C58.4437 42.5822 58.9013 42.4698 59.4553 42.3219C59.5183 42.3051 59.5825 42.2879 59.6479 42.2703C60.1286 42.141 60.6697 41.9956 61.2035 41.9015C62.4167 41.6878 63.9291 41.6793 65.0863 42.9409C65.9055 43.834 66.3147 44.202 66.7863 44.3979C67.2573 44.5935 67.9127 44.6638 69.3361 44.5672C69.4904 44.5567 69.6441 44.5457 69.7964 44.5347C70.3248 44.4968 70.8374 44.4599 71.3028 44.4524C71.9121 44.4426 72.5268 44.4793 73.1195 44.6548C74.3979 45.0333 75.2944 45.9677 76.0519 47.5733C76.2875 48.0728 76.0736 48.6688 75.5741 48.9044C75.0746 49.14 74.4787 48.9261 74.243 48.4266C73.622 47.1102 73.0826 46.7297 72.5517 46.5725C72.2398 46.4801 71.8566 46.4437 71.3351 46.4522C70.9305 46.4587 70.4943 46.49 69.9793 46.5269C69.8182 46.5384 69.6494 46.5506 69.4715 46.5626C68.023 46.6609 66.9553 46.6337 66.0192 46.2449C65.0836 45.8564 64.4015 45.153 63.6124 44.2928C63.1614 43.8011 62.5486 43.6953 61.5505 43.8712C61.11 43.9488 60.6601 44.0695 60.1694 44.2012C60.104 44.2187 60.0379 44.2364 59.971 44.2543C59.4301 44.3987 58.8251 44.5541 58.2455 44.6119C56.1658 44.8194 53.3887 44.7305 50.8978 42.285C50.3224 41.72 49.4989 41.5474 48.542 41.6545Z" fill="#BEC11F"/>
<path d="M53.0753 82.1924C52.8158 82.6611 52.2256 82.8306 51.757 82.5712C51.2884 82.3117 51.1189 81.7215 51.3783 81.2529C51.6378 80.7843 52.228 80.6147 52.6966 80.8742C53.1652 81.1336 53.3347 81.7238 53.0753 82.1924Z" fill="#B86A0F"/>
<path d="M57.3386 81.5986C57.0792 82.0673 56.4889 82.2368 56.0203 81.9774C55.5517 81.7179 55.3822 81.1277 55.6416 80.6591C55.9011 80.1905 56.4913 80.0209 56.9599 80.2804C57.4285 80.5398 57.5981 81.13 57.3386 81.5986Z" fill="#B86A0F"/>
<path d="M67.8422 74.6669C67.4919 75.2995 66.6952 75.5284 66.0626 75.1782C65.4299 74.8279 65.201 74.0311 65.5513 73.3985C65.9015 72.7659 66.6983 72.537 67.3309 72.8873C67.9636 73.2375 68.1924 74.0343 67.8422 74.6669Z" fill="#B86A0F"/>
<path d="M49.6578 80.132C49.3951 80.6064 48.7975 80.7781 48.3231 80.5154C47.8486 80.2527 47.677 79.6552 47.9396 79.1807C48.2023 78.7062 48.7999 78.5346 49.2744 78.7973C49.7488 79.0599 49.9205 79.6575 49.6578 80.132Z" fill="#B86A0F"/>
<path d="M64.6683 76.4512C64.1235 77.4353 62.884 77.7913 61.9 77.2465C60.9159 76.7016 60.5598 75.4622 61.1047 74.4781C61.6495 73.4941 62.8889 73.138 63.873 73.6829C64.8571 74.2277 65.2131 75.4671 64.6683 76.4512Z" fill="#B86A0F"/>
<path d="M61.1859 72.0283C60.8356 72.6609 60.0389 72.8898 59.4062 72.5396C58.7736 72.1893 58.5447 71.3926 58.895 70.7599C59.2452 70.1273 60.042 69.8984 60.6746 70.2487C61.3072 70.5989 61.5361 71.3957 61.1859 72.0283Z" fill="#B86A0F"/>
<path d="M61.7748 80.956C61.4246 81.5886 60.6278 81.8175 59.9952 81.4672C59.3626 81.117 59.1337 80.3202 59.4839 79.6876C59.8342 79.055 60.6309 78.8261 61.2636 79.1763C61.8962 79.5266 62.1251 80.3234 61.7748 80.956Z" fill="#B86A0F"/>
<path d="M58.3923 77.2766C58.1798 77.6603 57.6965 77.7992 57.3128 77.5867C56.929 77.3742 56.7901 76.8909 57.0026 76.5072C57.2151 76.1234 57.6984 75.9845 58.0822 76.197C58.4659 76.4095 58.6048 76.8928 58.3923 77.2766Z" fill="#B86A0F"/>
<path d="M54.7732 78.1274C54.423 78.76 53.6262 78.9889 52.9936 78.6387C52.361 78.2884 52.1321 77.4916 52.4823 76.859C52.8326 76.2264 53.6294 75.9975 54.262 76.3478C54.8946 76.698 55.1235 77.4948 54.7732 78.1274Z" fill="#B86A0F"/>
<path d="M57.1054 74.3192C56.7552 74.9518 55.9584 75.1807 55.3258 74.8305C54.6932 74.4802 54.4643 73.6835 54.8145 73.0508C55.1648 72.4182 55.9616 72.1893 56.5942 72.5396C57.2268 72.8898 57.4557 73.6866 57.1054 74.3192Z" fill="#B86A0F"/>
<path d="M50.9926 76.4367C50.7299 76.9112 50.1323 77.0829 49.6579 76.8202C49.1834 76.5575 49.0117 75.9599 49.2744 75.4854C49.5371 75.011 50.1347 74.8393 50.6091 75.102C51.0836 75.3647 51.2553 75.9623 50.9926 76.4367Z" fill="#B86A0F"/>
<path fill-rule="evenodd" clip-rule="evenodd" d="M58.9572 23.3635C59.5028 23.4495 59.8753 23.9615 59.7894 24.507L58.8726 30.3235C58.7867 30.8691 58.2747 31.2416 57.7291 31.1556C57.1836 31.0697 56.811 30.5577 56.897 30.0122L57.8137 24.1957C57.8997 23.6501 58.4117 23.2776 58.9572 23.3635Z" fill="#3DB7D1"/>
<path fill-rule="evenodd" clip-rule="evenodd" d="M61.9443 25.4828C62.1673 25.9881 61.9385 26.5784 61.4332 26.8014L56.0462 29.1789C55.5409 29.4019 54.9506 29.1731 54.7276 28.6678C54.5046 28.1625 54.7334 27.5722 55.2387 27.3492L60.6257 24.9717C61.1309 24.7487 61.7213 24.9775 61.9443 25.4828Z" fill="#3DB7D1"/>
<path fill-rule="evenodd" clip-rule="evenodd" d="M61.1495 29.9906C60.7673 30.3893 60.1343 30.4026 59.7356 30.0204L55.4852 25.9455C55.0865 25.5633 55.0731 24.9302 55.4553 24.5316C55.8376 24.1329 56.4706 24.1196 56.8692 24.5018L61.1197 28.5767C61.5184 28.9589 61.5317 29.592 61.1495 29.9906Z" fill="#3DB7D1"/>
<path fill-rule="evenodd" clip-rule="evenodd" d="M70.9143 26.1622C71.3109 26.5466 71.3207 27.1797 70.9362 27.5763L66.8376 31.8039C66.4532 32.2004 65.8201 32.2102 65.4235 31.8258C65.027 31.4414 65.0172 30.8083 65.4016 30.4118L69.5003 26.1841C69.8847 25.7876 70.5178 25.7778 70.9143 26.1622Z" fill="#3DB7D1"/>
<path fill-rule="evenodd" clip-rule="evenodd" d="M72.1363 29.6148C72.0276 30.1563 71.5006 30.5073 70.9591 30.3986L65.1858 29.2406C64.6443 29.132 64.2934 28.605 64.402 28.0635C64.5106 27.522 65.0377 27.1711 65.5791 27.2797L71.3524 28.4377C71.8939 28.5463 72.2449 29.0733 72.1363 29.6148Z" fill="#3DB7D1"/>
<path fill-rule="evenodd" clip-rule="evenodd" d="M68.8909 32.8428C68.3488 32.9487 67.8236 32.5951 67.7177 32.053L66.5889 26.2739C66.4831 25.7319 66.8367 25.2067 67.3787 25.1008C67.9207 24.9949 68.446 25.3485 68.5518 25.8905L69.6806 31.6696C69.7865 32.2117 69.4329 32.7369 68.8909 32.8428Z" fill="#3DB7D1"/>
<path fill-rule="evenodd" clip-rule="evenodd" d="M80.9177 30.4807C81.124 30.993 80.8759 31.5756 80.3636 31.7819L75.8959 33.581C75.3836 33.7873 74.801 33.5392 74.5947 33.0269C74.3884 32.5146 74.6365 31.932 75.1488 31.7257L79.6165 29.9267C80.1288 29.7204 80.7114 29.9684 80.9177 30.4807Z" fill="#3DB7D1"/>
<path fill-rule="evenodd" clip-rule="evenodd" d="M80.6642 33.6406C80.3451 34.0913 79.721 34.1981 79.2702 33.879L75.3392 31.0961C74.8885 30.777 74.7817 30.1529 75.1009 29.7021C75.42 29.2514 76.0441 29.1446 76.4948 29.4637L80.4258 32.2466C80.8766 32.5657 80.9833 33.1898 80.6642 33.6406Z" fill="#3DB7D1"/>
<path fill-rule="evenodd" clip-rule="evenodd" d="M76.977 35.048C76.4387 34.9247 76.1022 34.3883 76.2255 33.85L77.3009 29.1552C77.4243 28.6169 77.9606 28.2804 78.499 28.4038C79.0373 28.5271 79.3738 29.0634 79.2505 29.6018L78.1751 34.2965C78.0517 34.8349 77.5154 35.1713 76.977 35.048Z" fill="#3DB7D1"/>
<path fill-rule="evenodd" clip-rule="evenodd" d="M52.8087 23.4978C53.015 24.0101 52.7669 24.5926 52.2546 24.7989L47.7869 26.598C47.2746 26.8043 46.6921 26.5562 46.4858 26.0439C46.2795 25.5316 46.5276 24.9491 47.0399 24.7428L51.5076 22.9437C52.0199 22.7374 52.6024 22.9855 52.8087 23.4978Z" fill="#3DB7D1"/>
<path fill-rule="evenodd" clip-rule="evenodd" d="M52.5553 26.6576C52.2362 27.1084 51.6121 27.2151 51.1613 26.896L47.2303 24.1132C46.7795 23.794 46.6728 23.1699 46.9919 22.7192C47.311 22.2684 47.9351 22.1617 48.3859 22.4808L52.3169 25.2636C52.7677 25.5828 52.8744 26.2069 52.5553 26.6576Z" fill="#3DB7D1"/>
<path fill-rule="evenodd" clip-rule="evenodd" d="M48.8681 28.065C48.3297 27.9417 47.9933 27.4054 48.1166 26.867L49.192 22.1723C49.3153 21.6339 49.8517 21.2975 50.39 21.4208C50.9284 21.5441 51.2648 22.0805 51.1415 22.6188L50.0661 27.3136C49.9428 27.8519 49.4064 28.1884 48.8681 28.065Z" fill="#3DB7D1"/>
<path d="M41.2499 65C41.2499 68.3827 35.6535 68.875 28.7499 68.875C21.8464 68.875 16.2499 68.3827 16.2499 65C16.2499 61.6172 21.8464 58.875 28.7499 58.875C35.6535 58.875 41.2499 61.6172 41.2499 65Z" fill="#FB5B5B"/>
<path fill-rule="evenodd" clip-rule="evenodd" d="M26.2599 60.2612C27.8199 60.1559 29.2878 60.1555 30.1805 60.1885C31.0084 60.2192 31.6546 60.9152 31.6239 61.743C31.5933 62.5709 30.8973 63.2171 30.0695 63.1865C29.2746 63.157 27.9113 63.1566 26.4619 63.2544C24.9904 63.3537 23.5382 63.5479 22.5099 63.8692C21.7192 64.1163 20.8779 63.6756 20.6308 62.8849C20.3837 62.0942 20.8243 61.2529 21.6151 61.0058C22.9868 60.5771 24.722 60.365 26.2599 60.2612Z" fill="#FFADAD"/>
</g>
<defs>
<clipPath id="clip0_106_3072">
<rect width="96" height="96" fill="white"/>
</clipPath>
</defs>
</svg>
