<svg width="96" height="96" viewBox="0 0 96 96" fill="none" xmlns="http://www.w3.org/2000/svg">
<path d="M39.3062 84.4332L44.9656 64.5879C45.0316 64.3568 45.1786 64.1571 45.3797 64.0254L48.3178 62.1026C48.9996 61.6564 49.9003 62.1693 49.8644 62.9834L48.8736 85.4778C48.8519 85.9689 48.4754 86.3737 47.9856 86.4146C43.9443 86.7518 41.1439 86.077 39.7637 85.4873C39.3575 85.3138 39.1851 84.8581 39.3062 84.4332Z" fill="#CD9220"/>
<path fill-rule="evenodd" clip-rule="evenodd" d="M45.3594 63.9945L44.2845 62.352L47.2225 60.4292L48.3177 62.1026L45.3797 64.0254C45.1785 64.1571 45.0315 64.3568 44.9656 64.5879L39.3062 84.4332C39.185 84.8581 39.3574 85.3138 39.7637 85.4873L38.9778 87.3265C37.4885 86.6901 37.0349 85.105 37.3829 83.8848L43.0423 64.0394C43.2401 63.3459 43.681 62.7469 44.2845 62.352L45.3594 63.9945ZM39.7637 85.4873L38.9778 87.3265C40.6971 88.061 43.8304 88.7682 48.1518 88.4077C49.6796 88.2802 50.8072 87.0269 50.8716 85.5658L51.8624 63.0714C51.97 60.6291 49.268 59.0905 47.2225 60.4292L48.3177 62.1026C48.9996 61.6564 49.9002 62.1693 49.8644 62.9834L48.8735 85.4778C48.8519 85.9689 48.4754 86.3737 47.9855 86.4146C43.9442 86.7518 41.1438 86.077 39.7637 85.4873Z" fill="#915117"/>
<path fill-rule="evenodd" clip-rule="evenodd" d="M44.8812 86.4837C45.8156 86.5241 46.8518 86.5092 47.9855 86.4146C48.4754 86.3737 48.8519 85.9689 48.8735 85.4778L49.8644 62.9834C49.9002 62.1693 48.9996 61.6564 48.3177 62.1026L47.7521 62.4728C47.8305 62.6212 47.8727 62.7942 47.8644 62.9834L46.8735 85.4778C46.8519 85.9689 46.4754 86.3737 45.9855 86.4146C45.6064 86.4462 45.2383 86.4689 44.8812 86.4837Z" fill="#BA8111"/>
<path fill-rule="evenodd" clip-rule="evenodd" d="M42.9584 71.6264C43.0347 71.6255 43.111 71.625 43.1875 71.625C45.3887 71.625 47.4952 72.0047 49.4365 72.698L49.8644 62.9834C49.9003 62.1693 48.9996 61.6564 48.3178 62.1026L45.3797 64.0254C45.1786 64.1571 45.0316 64.3568 44.9656 64.5879L42.9584 71.6264Z" fill="#995E05"/>
<path d="M18.338 33.0677L37.2264 31.0226C37.5077 30.9922 37.7628 30.844 37.9287 30.6149L44.8741 21.0228L51.0896 12.4387C51.5354 11.8231 52.4778 11.9101 52.8033 12.597L62.4121 32.8763C62.5333 33.132 62.757 33.3244 63.0279 33.4058L81.2221 38.8761C81.983 39.1049 82.1861 40.0868 81.5784 40.5987L65.2181 54.3763C64.9649 54.5896 64.8336 54.9144 64.8676 55.2438L66.8137 74.1156C66.8992 74.9447 65.9925 75.5084 65.2869 75.0649L47.647 63.9793C47.3774 63.8098 47.0431 63.7789 46.7469 63.8961L27.375 71.5631C26.6001 71.8698 25.812 71.1496 26.0479 70.3503L31.4178 52.1542C31.5115 51.8366 31.442 51.4932 31.2321 51.2372L17.6723 34.6959C17.1686 34.0814 17.5481 33.1533 18.338 33.0677Z" fill="#FFE24B"/>
<path fill-rule="evenodd" clip-rule="evenodd" d="M36.5694 29.0821L49.4697 11.2658C50.8069 9.41891 53.6343 9.68005 54.6106 11.7406L64.0292 31.6184L81.798 36.9608C84.0807 37.6471 84.6899 40.593 82.8667 42.1284L66.9113 55.5652L68.8031 73.9105C69.0596 76.3976 66.3397 78.0887 64.2227 76.7583L65.2869 75.0649C65.9925 75.5084 66.8992 74.9447 66.8137 74.1156L64.8676 55.2438C64.8336 54.9144 64.9649 54.5896 65.2181 54.3763L81.5784 40.5987C82.1861 40.0868 81.983 39.1049 81.2221 38.8761L63.0279 33.4058C62.757 33.3244 62.5333 33.132 62.4121 32.8763L52.8033 12.597C52.4778 11.9101 51.5354 11.8231 51.0896 12.4387L37.9287 30.6149C37.7628 30.844 37.5077 30.9922 37.2264 31.0226L18.338 33.0677C17.5481 33.1533 17.1686 34.0814 17.6723 34.6959L31.2321 51.2372C31.442 51.4932 31.5115 51.8366 31.4178 52.1542L26.0479 70.3503C25.812 71.1496 26.6001 71.8698 27.375 71.5631L28.111 73.4228C25.7862 74.3429 23.422 72.1822 24.1297 69.7842L29.3498 52.0957L16.1256 35.9638C14.6144 34.1204 15.753 31.3359 18.1227 31.0794L36.5694 29.0821ZM47.0118 65.9422L64.2227 76.7583L65.2869 75.0649L47.647 63.9793C47.3774 63.8098 47.0431 63.7789 46.7469 63.8961L27.375 71.5631L28.111 73.4228L47.0118 65.9422Z" fill="#D97D11"/>
<path d="M29.2436 37.107L39.9047 35.9527C40.1859 35.9222 40.4411 35.7741 40.607 35.5449L44.7516 29.821L48.1662 25.105C48.612 24.4894 49.5545 24.5765 49.8799 25.2633L55.399 36.9112C55.5201 37.1669 55.7438 37.3592 56.0147 37.4407L66.284 40.5282C67.0449 40.757 67.2479 41.739 66.6402 42.2508L57.3457 50.0781C57.0924 50.2914 56.9611 50.6162 56.9951 50.9456L58.0819 61.4844C58.1674 62.3134 57.2607 62.8771 56.555 62.4337L46.6135 56.1859C46.3438 56.0164 46.0095 55.9856 45.7134 56.1028L34.7956 60.4238C34.0206 60.7305 33.2326 60.0103 33.4685 59.2109L36.4672 49.0495C36.561 48.732 36.4914 48.3886 36.2815 48.1325L28.5779 38.7351C28.0742 38.1207 28.4537 37.1925 29.2436 37.107Z" fill="#F6D737"/>
<path d="M33.7222 38.1102L40.8175 37.342C41.0988 37.3116 41.3539 37.1634 41.5198 36.9343L44.4505 32.8868L46.6513 29.8473C47.0971 29.2317 48.0395 29.3187 48.365 30.0056L52.1115 37.9126C52.2326 38.1682 52.4564 38.3606 52.7273 38.4421L59.5618 40.4969C60.3227 40.7257 60.5258 41.7077 59.918 42.2195L53.6858 47.468C53.4325 47.6812 53.3012 48.0061 53.3352 48.3354L54.0495 55.2626C54.135 56.0917 53.2284 56.6554 52.5227 56.2119L45.9176 52.0609C45.6479 51.8915 45.3136 51.8606 45.0175 51.9778L37.7637 54.8487C36.9888 55.1554 36.2007 54.4352 36.4366 53.6358L38.4077 46.9566C38.5014 46.6391 38.4319 46.2957 38.222 46.0396L33.0565 39.7384C32.5528 39.1239 32.9323 38.1958 33.7222 38.1102Z" fill="#FFE24B"/>
<path fill-rule="evenodd" clip-rule="evenodd" d="M26.9985 67.1291L26.0479 70.3503C25.812 71.1496 26.6 71.8699 27.375 71.5632L46.7469 63.8962C47.0431 63.779 47.3773 63.8098 47.647 63.9793L65.2868 75.0649C65.9925 75.5084 66.8991 74.9447 66.8136 74.1157L64.8675 55.2438C64.8336 54.9145 64.9648 54.5896 65.2181 54.3764L81.5783 40.5987C82.1861 40.0869 81.983 39.1049 81.2221 38.8761L77.4192 37.7327L61.2181 51.3764C60.9648 51.5896 60.8336 51.9145 60.8675 52.2438L62.8136 71.1157C62.8991 71.9447 61.9925 72.5084 61.2868 72.0649L43.647 60.9793C43.3773 60.8098 43.0431 60.779 42.7469 60.8962L26.9985 67.1291ZM61.6092 31.182L52.8032 12.597C52.4778 11.9102 51.5353 11.8231 51.0896 12.4388L50.5215 13.2234L58.4121 29.8764C58.5332 30.132 58.757 30.3244 59.0279 30.4058L61.6092 31.182Z" fill="#E3C731"/>
<path fill-rule="evenodd" clip-rule="evenodd" d="M44.6 25.2C45.0418 25.5314 45.1314 26.1582 44.8 26.6L38.8 34.6C38.6302 34.8264 38.3724 34.9703 38.0905 34.9959L32.5905 35.4959C32.0405 35.5459 31.5541 35.1406 31.5041 34.5905C31.4541 34.0405 31.8595 33.5541 32.4095 33.5041L37.4667 33.0444L43.2 25.4C43.5314 24.9582 44.1582 24.8686 44.6 25.2Z" fill="#FFF9D8"/>
<path d="M62 64C62 64.5523 61.5523 65 61 65C60.4477 65 60 64.5523 60 64C60 63.4477 60.4477 63 61 63C61.5523 63 62 63.4477 62 64Z" fill="#DBA416"/>
<path d="M63 60C63 60.5523 62.5523 61 62 61C61.4477 61 61 60.5523 61 60C61 59.4477 61.4477 59 62 59C62.5523 59 63 59.4477 63 60Z" fill="#DBA416"/>
<path d="M64 52C64 52.5523 63.5523 53 63 53C62.4477 53 62 52.5523 62 52C62 51.4477 62.4477 51 63 51C63.5523 51 64 51.4477 64 52Z" fill="#DBA416"/>
<path d="M59.3438 51.5781C59.3438 51.8974 59.0849 52.1562 58.7656 52.1562C58.4463 52.1562 58.1875 51.8974 58.1875 51.5781C58.1875 51.2588 58.4463 51 58.7656 51C59.0849 51 59.3438 51.2588 59.3438 51.5781Z" fill="#DBA416"/>
<path d="M64 48.2656C64 48.5849 63.7412 48.8438 63.4219 48.8438C63.1026 48.8438 62.8438 48.5849 62.8438 48.2656C62.8438 47.9463 63.1026 47.6875 63.4219 47.6875C63.7412 47.6875 64 47.9463 64 48.2656Z" fill="#DBA416"/>
<path d="M61.6875 55.2656C61.6875 55.792 61.2608 56.2188 60.7344 56.2188C60.208 56.2188 59.7812 55.792 59.7812 55.2656C59.7812 54.7392 60.208 54.3125 60.7344 54.3125C61.2608 54.3125 61.6875 54.7392 61.6875 55.2656Z" fill="#DBA416"/>
<path d="M72.0938 43.2322C72.0938 43.5515 71.8349 43.8103 71.5156 43.8103C71.1963 43.8103 70.9375 43.5515 70.9375 43.2322C70.9375 42.9129 71.1963 42.6541 71.5156 42.6541C71.8349 42.6541 72.0938 42.9129 72.0938 43.2322Z" fill="#DBA416"/>
<path d="M76.5938 43.0447C76.5938 43.364 76.3349 43.6228 76.0156 43.6228C75.6963 43.6228 75.4375 43.364 75.4375 43.0447C75.4375 42.7254 75.6963 42.4666 76.0156 42.4666C76.3349 42.4666 76.5938 42.7254 76.5938 43.0447Z" fill="#DBA416"/>
<path d="M72.4688 45.9219C72.4688 46.3447 72.126 46.6875 71.7031 46.6875C71.2803 46.6875 70.9375 46.3447 70.9375 45.9219C70.9375 45.499 71.2803 45.1562 71.7031 45.1562C72.126 45.1562 72.4688 45.499 72.4688 45.9219Z" fill="#DBA416"/>
<path d="M64.1562 57C64.1562 57.3193 63.8974 57.5781 63.5781 57.5781C63.2588 57.5781 63 57.3193 63 57C63 56.6807 63.2588 56.4219 63.5781 56.4219C63.8974 56.4219 64.1562 56.6807 64.1562 57Z" fill="#DBA416"/>
<path d="M59.1562 58.8438C59.1562 59.163 58.8974 59.4219 58.5781 59.4219C58.2588 59.4219 58 59.163 58 58.8438C58 58.5245 58.2588 58.2656 58.5781 58.2656C58.8974 58.2656 59.1562 58.5245 59.1562 58.8438Z" fill="#DBA416"/>
<path d="M64.9375 67.1875C64.9375 67.5068 64.6787 67.7656 64.3594 67.7656C64.0401 67.7656 63.7812 67.5068 63.7812 67.1875C63.7812 66.8682 64.0401 66.6094 64.3594 66.6094C64.6787 66.6094 64.9375 66.8682 64.9375 67.1875Z" fill="#DBA416"/>
<path d="M58.1875 55.5C58.1875 56.1558 57.6558 56.6875 57 56.6875C56.3442 56.6875 55.8125 56.1558 55.8125 55.5C55.8125 54.8442 56.3442 54.3125 57 54.3125C57.6558 54.3125 58.1875 54.8442 58.1875 55.5Z" fill="#DBA416"/>
<path d="M69 48.5C69 49.3284 68.3284 50 67.5 50C66.6716 50 66 49.3284 66 48.5C66 47.6716 66.6716 47 67.5 47C68.3284 47 69 47.6716 69 48.5Z" fill="#DBA416"/>
</svg>
